<svg width="444" height="84" viewBox="0 0 444 84" fill="none" xmlns="http://www.w3.org/2000/svg">
<path d="M178.936 66C178.467 66 178.083 65.8507 177.784 65.552C177.485 65.2533 177.336 64.8693 177.336 64.4V31.248H165.944C165.475 31.248 165.091 31.0987 164.792 30.8C164.493 30.4587 164.344 30.0747 164.344 29.648V22.8C164.344 22.3307 164.493 21.9467 164.792 21.648C165.091 21.3493 165.475 21.2 165.944 21.2H200.376C200.845 21.2 201.229 21.3493 201.528 21.648C201.827 21.9467 201.976 22.3307 201.976 22.8V29.648C201.976 30.0747 201.827 30.4587 201.528 30.8C201.229 31.0987 200.845 31.248 200.376 31.248H188.984V64.4C188.984 64.8693 188.835 65.2533 188.536 65.552C188.237 65.8507 187.853 66 187.384 66H178.936ZM209.393 66C208.923 66 208.539 65.8507 208.241 65.552C207.942 65.2533 207.793 64.8693 207.793 64.4V22.8C207.793 22.3307 207.942 21.9467 208.241 21.648C208.539 21.3493 208.923 21.2 209.393 21.2H239.281C239.75 21.2 240.134 21.3493 240.433 21.648C240.731 21.9467 240.881 22.3307 240.881 22.8V28.816C240.881 29.2853 240.731 29.6693 240.433 29.968C240.134 30.2667 239.75 30.416 239.281 30.416H218.865V39.056H237.873C238.342 39.056 238.726 39.2267 239.025 39.568C239.323 39.8667 239.472 40.2507 239.472 40.72V46.288C239.472 46.7147 239.323 47.0987 239.025 47.44C238.726 47.7387 238.342 47.888 237.873 47.888H218.865V56.784H239.793C240.262 56.784 240.646 56.9333 240.944 57.232C241.243 57.5307 241.393 57.9147 241.393 58.384V64.4C241.393 64.8693 241.243 65.2533 240.944 65.552C240.646 65.8507 240.262 66 239.793 66H209.393ZM250.268 66C249.798 66 249.414 65.8507 249.116 65.552C248.817 65.2533 248.668 64.8693 248.668 64.4V22.8C248.668 22.3307 248.817 21.9467 249.116 21.648C249.414 21.3493 249.798 21.2 250.268 21.2H267.676C273.18 21.2 277.51 22.48 280.668 25.04C283.868 27.5573 285.468 31.1413 285.468 35.792C285.468 38.8213 284.721 41.3813 283.228 43.472C281.777 45.5627 279.857 47.1413 277.468 48.208L286.3 63.952C286.428 64.208 286.492 64.4427 286.492 64.656C286.492 64.9973 286.342 65.3173 286.044 65.616C285.788 65.872 285.468 66 285.084 66H276.636C275.825 66 275.228 65.808 274.844 65.424C274.46 64.9973 274.182 64.6133 274.012 64.272L266.716 50.192H260.124V64.4C260.124 64.8693 259.974 65.2533 259.676 65.552C259.377 65.8507 258.993 66 258.524 66H250.268ZM260.124 41.168H267.548C269.553 41.168 271.046 40.6773 272.028 39.696C273.052 38.7147 273.564 37.3707 273.564 35.664C273.564 34 273.073 32.656 272.092 31.632C271.153 30.608 269.638 30.096 267.548 30.096H260.124V41.168Z" fill="white"/>
<path d="M85.08 66C84.6107 66 84.2267 65.8507 83.928 65.552C83.6293 65.2533 83.48 64.8693 83.48 64.4V22.8C83.48 22.3307 83.6293 21.9467 83.928 21.648C84.2267 21.3493 84.6107 21.2 85.08 21.2H114.968C115.437 21.2 115.821 21.3493 116.12 21.648C116.419 21.9467 116.568 22.3307 116.568 22.8V28.816C116.568 29.2853 116.419 29.6693 116.12 29.968C115.821 30.2667 115.437 30.416 114.968 30.416H94.552V39.056H113.56C114.029 39.056 114.413 39.2267 114.712 39.568C115.011 39.8667 115.16 40.2507 115.16 40.72V46.288C115.16 46.7147 115.011 47.0987 114.712 47.44C114.413 47.7387 114.029 47.888 113.56 47.888H94.552V56.784H115.48C115.949 56.784 116.333 56.9333 116.632 57.232C116.931 57.5307 117.08 57.9147 117.08 58.384V64.4C117.08 64.8693 116.931 65.2533 116.632 65.552C116.333 65.8507 115.949 66 115.48 66H85.08ZM141.059 66.64C136.792 66.64 133.251 66.0427 130.435 64.848C127.619 63.6107 125.486 62.0107 124.035 60.048C122.584 58.0853 121.816 55.9947 121.731 53.776C121.731 53.4347 121.859 53.136 122.115 52.88C122.414 52.5813 122.755 52.432 123.139 52.432H131.203C131.8 52.432 132.248 52.5387 132.547 52.752C132.888 52.9653 133.187 53.2427 133.443 53.584C133.784 54.224 134.254 54.8427 134.851 55.44C135.491 56.0373 136.302 56.528 137.283 56.912C138.307 57.2533 139.566 57.424 141.059 57.424C143.534 57.424 145.39 57.04 146.627 56.272C147.907 55.504 148.547 54.4587 148.547 53.136C148.547 52.1973 148.206 51.4293 147.523 50.832C146.84 50.192 145.731 49.6373 144.195 49.168C142.702 48.656 140.696 48.144 138.179 47.632C134.936 46.9493 132.163 46.0747 129.859 45.008C127.598 43.8987 125.87 42.4693 124.675 40.72C123.48 38.928 122.883 36.7093 122.883 34.064C122.883 31.4613 123.608 29.136 125.059 27.088C126.552 25.04 128.622 23.44 131.267 22.288C133.912 21.136 137.048 20.56 140.675 20.56C143.619 20.56 146.2 20.944 148.419 21.712C150.68 22.48 152.579 23.504 154.115 24.784C155.651 26.064 156.803 27.4293 157.571 28.88C158.382 30.288 158.808 31.6747 158.851 33.04C158.851 33.3813 158.723 33.7013 158.467 34C158.211 34.256 157.891 34.384 157.507 34.384H149.059C148.59 34.384 148.184 34.2987 147.843 34.128C147.502 33.9573 147.203 33.68 146.947 33.296C146.691 32.3573 146.008 31.5467 144.899 30.864C143.832 30.1387 142.424 29.776 140.675 29.776C138.798 29.776 137.326 30.1173 136.259 30.8C135.235 31.44 134.723 32.4427 134.723 33.808C134.723 34.6613 135 35.408 135.555 36.048C136.152 36.688 137.112 37.2427 138.435 37.712C139.8 38.1813 141.656 38.672 144.003 39.184C147.886 39.9093 151.022 40.8267 153.411 41.936C155.8 43.0027 157.55 44.4107 158.659 46.16C159.768 47.8667 160.323 50.0213 160.323 52.624C160.323 55.5253 159.491 58.0427 157.827 60.176C156.206 62.2667 153.944 63.8667 151.043 64.976C148.142 66.0853 144.814 66.64 141.059 66.64Z" fill="url(#paint0_linear_6_14)"/>
<path d="M75 43.554C75 60.8074 60.5822 69.5613 42.797 69.5613C25.0117 69.5613 26.1301 60.8074 26.1301 43.554C26.1301 26.3006 25.0117 17 42.797 17C60.5822 17 75 26.3006 75 43.554Z" fill="url(#paint1_linear_6_14)"/>
<path d="M36.6526 55.9602C39.094 55.9602 41.0732 55.9022 41.0732 58.2194C41.0732 60.5365 39.094 62.4149 36.6526 62.4149C34.2112 62.4149 32.2321 60.5365 32.2321 58.2194C32.2321 55.9022 34.2112 55.9602 36.6526 55.9602Z" fill="url(#paint2_linear_6_14)"/>
<g filter="url(#filter0_d_6_14)">
<rect x="20" y="32.6763" width="33.3516" height="17.751" rx="8.87548" fill="url(#paint3_linear_6_14)" shape-rendering="crispEdges"/>
</g>
<rect x="20" y="32.6763" width="33.3516" height="17.751" rx="8.87548" fill="url(#paint4_linear_6_14)"/>
<path d="M29.5136 41.667C29.5136 44.5954 29.5747 46.9693 27.1352 46.9693C24.6958 46.9693 22.7182 44.5954 22.7182 41.667C22.7182 38.7387 24.6958 36.3648 27.1352 36.3648C29.5747 36.3648 29.5136 38.7387 29.5136 41.667Z" fill="white"/>
<rect x="305" y="16" width="4" height="58" fill="url(#paint5_linear_6_14)"/>
<path d="M334.52 32C334.285 32 334.104 31.936 333.976 31.808C333.848 31.6587 333.784 31.4773 333.784 31.264V10.368C333.784 10.1333 333.848 9.952 333.976 9.824C334.104 9.67467 334.285 9.6 334.52 9.6H341.784C343.981 9.6 345.752 9.93067 347.096 10.592C348.44 11.2533 349.421 12.2347 350.04 13.536C350.659 14.816 350.979 16.3947 351 18.272C351.021 19.232 351.032 20.0747 351.032 20.8C351.032 21.5253 351.021 22.3573 351 23.296C350.957 25.2587 350.627 26.8907 350.008 28.192C349.411 29.472 348.451 30.432 347.128 31.072C345.827 31.6907 344.099 32 341.944 32H334.52ZM336.92 29.28H341.784C343.256 29.28 344.429 29.0773 345.304 28.672C346.179 28.2667 346.808 27.616 347.192 26.72C347.597 25.824 347.811 24.64 347.832 23.168C347.875 22.528 347.896 21.9733 347.896 21.504C347.896 21.0133 347.896 20.5333 347.896 20.064C347.896 19.5733 347.875 19.0187 347.832 18.4C347.789 16.3307 347.299 14.8053 346.36 13.824C345.421 12.8213 343.843 12.32 341.624 12.32H336.92V29.28ZM362.055 32.32C359.857 32.32 358.108 31.648 356.807 30.304C355.505 28.9387 354.791 27.0827 354.663 24.736C354.641 24.4587 354.631 24.1067 354.631 23.68C354.631 23.232 354.641 22.8693 354.663 22.592C354.748 21.0773 355.1 19.7547 355.719 18.624C356.337 17.472 357.18 16.5867 358.247 15.968C359.335 15.3493 360.604 15.04 362.055 15.04C363.676 15.04 365.031 15.3813 366.119 16.064C367.228 16.7467 368.071 17.7173 368.647 18.976C369.223 20.2347 369.51 21.7067 369.51 23.392V23.936C369.51 24.1707 369.436 24.352 369.287 24.48C369.159 24.608 368.988 24.672 368.775 24.672H357.703C357.703 24.6933 357.703 24.736 357.703 24.8C357.703 24.864 357.703 24.9173 357.703 24.96C357.745 25.8347 357.937 26.656 358.279 27.424C358.62 28.1707 359.111 28.7787 359.751 29.248C360.391 29.7173 361.159 29.952 362.055 29.952C362.823 29.952 363.463 29.8347 363.975 29.6C364.487 29.3653 364.903 29.1093 365.223 28.832C365.543 28.5333 365.756 28.3093 365.863 28.16C366.055 27.8827 366.204 27.7227 366.311 27.68C366.417 27.616 366.588 27.584 366.823 27.584H368.359C368.572 27.584 368.743 27.648 368.871 27.776C369.02 27.8827 369.084 28.0427 369.062 28.256C369.041 28.576 368.871 28.9707 368.551 29.44C368.231 29.888 367.772 30.336 367.175 30.784C366.577 31.232 365.852 31.6053 364.999 31.904C364.145 32.1813 363.164 32.32 362.055 32.32ZM357.703 22.464H366.471V22.368C366.471 21.408 366.289 20.5547 365.927 19.808C365.585 19.0613 365.084 18.4747 364.423 18.048C363.761 17.6 362.972 17.376 362.055 17.376C361.137 17.376 360.348 17.6 359.687 18.048C359.047 18.4747 358.556 19.0613 358.215 19.808C357.873 20.5547 357.703 21.408 357.703 22.368V22.464ZM379.097 32.32C377.902 32.32 376.878 32.1707 376.025 31.872C375.171 31.5733 374.478 31.2107 373.945 30.784C373.411 30.3573 373.006 29.9307 372.729 29.504C372.473 29.0773 372.334 28.736 372.313 28.48C372.291 28.2453 372.366 28.064 372.537 27.936C372.707 27.808 372.878 27.744 373.049 27.744H374.457C374.585 27.744 374.681 27.7653 374.745 27.808C374.83 27.8293 374.937 27.9147 375.065 28.064C375.342 28.3627 375.651 28.6613 375.993 28.96C376.334 29.2587 376.75 29.504 377.241 29.696C377.753 29.888 378.382 29.984 379.129 29.984C380.217 29.984 381.113 29.7813 381.817 29.376C382.521 28.9493 382.873 28.3307 382.873 27.52C382.873 26.9867 382.723 26.56 382.425 26.24C382.147 25.92 381.635 25.632 380.889 25.376C380.163 25.12 379.161 24.8533 377.881 24.576C376.601 24.2773 375.587 23.9147 374.841 23.488C374.094 23.04 373.561 22.5173 373.241 21.92C372.921 21.3013 372.761 20.608 372.761 19.84C372.761 19.0507 372.995 18.2933 373.465 17.568C373.934 16.8213 374.617 16.2133 375.513 15.744C376.43 15.2747 377.571 15.04 378.937 15.04C380.046 15.04 380.995 15.1787 381.785 15.456C382.574 15.7333 383.225 16.0853 383.737 16.512C384.249 16.9173 384.633 17.3227 384.889 17.728C385.145 18.1333 385.283 18.4747 385.305 18.752C385.326 18.9653 385.262 19.1467 385.113 19.296C384.963 19.424 384.793 19.488 384.601 19.488H383.257C383.107 19.488 382.979 19.456 382.873 19.392C382.787 19.328 382.702 19.2533 382.617 19.168C382.403 18.8907 382.147 18.6133 381.849 18.336C381.571 18.0587 381.198 17.8347 380.729 17.664C380.281 17.472 379.683 17.376 378.937 17.376C377.87 17.376 377.07 17.6 376.537 18.048C376.003 18.496 375.737 19.0613 375.737 19.744C375.737 20.1493 375.854 20.512 376.089 20.832C376.323 21.152 376.771 21.44 377.433 21.696C378.094 21.952 379.075 22.2293 380.377 22.528C381.785 22.8053 382.894 23.1787 383.705 23.648C384.515 24.1173 385.091 24.6613 385.433 25.28C385.774 25.8987 385.945 26.6133 385.945 27.424C385.945 28.32 385.678 29.1413 385.145 29.888C384.633 30.6347 383.865 31.232 382.841 31.68C381.838 32.1067 380.59 32.32 379.097 32.32ZM390.385 32C390.172 32 389.991 31.936 389.841 31.808C389.713 31.6587 389.649 31.4773 389.649 31.264V16.096C389.649 15.8827 389.713 15.712 389.841 15.584C389.991 15.4347 390.172 15.36 390.385 15.36H391.921C392.135 15.36 392.305 15.4347 392.433 15.584C392.561 15.712 392.625 15.8827 392.625 16.096V31.264C392.625 31.4773 392.561 31.6587 392.433 31.808C392.305 31.936 392.135 32 391.921 32H390.385ZM390.129 12.256C389.916 12.256 389.735 12.192 389.585 12.064C389.457 11.9147 389.393 11.7333 389.393 11.52V9.792C389.393 9.57867 389.457 9.408 389.585 9.28C389.735 9.13067 389.916 9.056 390.129 9.056H392.145C392.359 9.056 392.529 9.13067 392.657 9.28C392.807 9.408 392.881 9.57867 392.881 9.792V11.52C392.881 11.7333 392.807 11.9147 392.657 12.064C392.529 12.192 392.359 12.256 392.145 12.256H390.129ZM404.215 39.04C402.765 39.04 401.57 38.848 400.631 38.464C399.714 38.08 398.989 37.6107 398.455 37.056C397.943 36.5227 397.57 35.9787 397.335 35.424C397.122 34.8907 397.005 34.464 396.983 34.144C396.962 33.9307 397.026 33.7493 397.175 33.6C397.346 33.4507 397.527 33.376 397.719 33.376H399.255C399.447 33.376 399.607 33.4187 399.735 33.504C399.863 33.5893 399.97 33.7707 400.055 34.048C400.183 34.368 400.375 34.72 400.631 35.104C400.887 35.5093 401.282 35.8507 401.815 36.128C402.349 36.4267 403.095 36.576 404.055 36.576C405.058 36.576 405.901 36.4373 406.583 36.16C407.266 35.904 407.778 35.4347 408.119 34.752C408.482 34.0907 408.663 33.1733 408.663 32V29.824C408.151 30.4853 407.479 31.04 406.647 31.488C405.815 31.9147 404.77 32.128 403.511 32.128C402.317 32.128 401.293 31.9253 400.439 31.52C399.586 31.0933 398.882 30.528 398.327 29.824C397.794 29.0987 397.389 28.2773 397.111 27.36C396.855 26.4427 396.706 25.4827 396.663 24.48C396.642 23.8827 396.642 23.296 396.663 22.72C396.706 21.7173 396.855 20.7573 397.111 19.84C397.389 18.9227 397.794 18.1013 398.327 17.376C398.882 16.6507 399.586 16.0853 400.439 15.68C401.293 15.2533 402.317 15.04 403.511 15.04C404.791 15.04 405.847 15.2853 406.679 15.776C407.533 16.2453 408.226 16.8213 408.759 17.504V16.128C408.759 15.9147 408.823 15.7333 408.951 15.584C409.101 15.4347 409.282 15.36 409.495 15.36H410.967C411.181 15.36 411.362 15.4347 411.511 15.584C411.661 15.7333 411.735 15.9147 411.735 16.128V31.648C411.735 33.0773 411.49 34.3467 410.999 35.456C410.53 36.5653 409.741 37.44 408.631 38.08C407.543 38.72 406.071 39.04 404.215 39.04ZM404.151 29.568C405.218 29.568 406.071 29.3227 406.711 28.832C407.373 28.3413 407.853 27.7227 408.151 26.976C408.471 26.2293 408.642 25.472 408.663 24.704C408.685 24.4053 408.695 24.0427 408.695 23.616C408.695 23.168 408.685 22.7947 408.663 22.496C408.642 21.728 408.471 20.9707 408.151 20.224C407.853 19.4773 407.373 18.8587 406.711 18.368C406.071 17.8773 405.218 17.632 404.151 17.632C403.085 17.632 402.231 17.8773 401.591 18.368C400.951 18.8373 400.493 19.4667 400.215 20.256C399.938 21.024 399.778 21.856 399.735 22.752C399.714 23.3067 399.714 23.872 399.735 24.448C399.778 25.344 399.938 26.1867 400.215 26.976C400.493 27.744 400.951 28.3733 401.591 28.864C402.231 29.3333 403.085 29.568 404.151 29.568ZM417.229 32C417.016 32 416.834 31.936 416.685 31.808C416.557 31.6587 416.493 31.4773 416.493 31.264V16.096C416.493 15.8827 416.557 15.712 416.685 15.584C416.834 15.4347 417.016 15.36 417.229 15.36H418.733C418.946 15.36 419.117 15.4347 419.245 15.584C419.394 15.712 419.469 15.8827 419.469 16.096V17.504C420.024 16.7787 420.717 16.192 421.549 15.744C422.402 15.2747 423.49 15.04 424.813 15.04C426.2 15.04 427.373 15.3493 428.333 15.968C429.314 16.5653 430.05 17.408 430.541 18.496C431.032 19.5627 431.277 20.8107 431.277 22.24V31.264C431.277 31.4773 431.213 31.6587 431.085 31.808C430.957 31.936 430.786 32 430.573 32H428.973C428.76 32 428.578 31.936 428.429 31.808C428.301 31.6587 428.237 31.4773 428.237 31.264V22.4C428.237 20.9067 427.874 19.744 427.149 18.912C426.424 18.0587 425.357 17.632 423.949 17.632C422.626 17.632 421.56 18.0587 420.749 18.912C419.96 19.744 419.565 20.9067 419.565 22.4V31.264C419.565 31.4773 419.49 31.6587 419.341 31.808C419.213 31.936 419.042 32 418.829 32H417.229ZM340.984 74.32C339.128 74.32 337.571 74.0427 336.312 73.488C335.053 72.912 334.083 72.176 333.4 71.28C332.739 70.3627 332.387 69.392 332.344 68.368C332.344 68.1973 332.408 68.048 332.536 67.92C332.685 67.7707 332.856 67.696 333.048 67.696H334.68C334.936 67.696 335.128 67.76 335.256 67.888C335.384 68.016 335.469 68.1653 335.512 68.336C335.619 68.848 335.875 69.36 336.28 69.872C336.707 70.3627 337.293 70.7787 338.04 71.12C338.808 71.44 339.789 71.6 340.984 71.6C342.819 71.6 344.163 71.28 345.016 70.64C345.891 69.9787 346.328 69.104 346.328 68.016C346.328 67.2693 346.093 66.672 345.624 66.224C345.176 65.7547 344.483 65.3387 343.544 64.976C342.605 64.6133 341.389 64.2187 339.896 63.792C338.339 63.344 337.048 62.8533 336.024 62.32C335 61.7867 334.232 61.1253 333.72 60.336C333.229 59.5467 332.984 58.544 332.984 57.328C332.984 56.176 333.293 55.152 333.912 54.256C334.531 53.3387 335.416 52.6133 336.568 52.08C337.741 51.5467 339.16 51.28 340.824 51.28C342.147 51.28 343.299 51.4613 344.28 51.824C345.283 52.1653 346.115 52.6347 346.776 53.232C347.437 53.808 347.939 54.4373 348.28 55.12C348.621 55.7813 348.803 56.432 348.824 57.072C348.824 57.2213 348.771 57.3707 348.664 57.52C348.557 57.648 348.387 57.712 348.152 57.712H346.456C346.307 57.712 346.147 57.6693 345.976 57.584C345.827 57.4987 345.709 57.3387 345.624 57.104C345.496 56.2293 345.005 55.4933 344.152 54.896C343.299 54.2987 342.189 54 340.824 54C339.437 54 338.307 54.2667 337.432 54.8C336.579 55.3333 336.152 56.1653 336.152 57.296C336.152 58.0213 336.355 58.6293 336.76 59.12C337.165 59.5893 337.805 60.0053 338.68 60.368C339.555 60.7307 340.696 61.1147 342.104 61.52C343.811 61.9893 345.208 62.4907 346.296 63.024C347.384 63.536 348.184 64.1867 348.696 64.976C349.229 65.744 349.496 66.736 349.496 67.952C349.496 69.296 349.144 70.448 348.44 71.408C347.736 72.3467 346.744 73.072 345.464 73.584C344.205 74.0747 342.712 74.32 340.984 74.32ZM356.155 80.08C355.984 80.08 355.835 80.016 355.707 79.888C355.579 79.76 355.515 79.6107 355.515 79.44C355.515 79.3547 355.526 79.2693 355.547 79.184C355.568 79.0987 355.611 78.992 355.675 78.864L358.139 73.008L352.027 58.576C351.92 58.32 351.867 58.1387 351.867 58.032C351.867 57.84 351.931 57.68 352.059 57.552C352.187 57.424 352.347 57.36 352.539 57.36H354.107C354.32 57.36 354.491 57.4133 354.619 57.52C354.747 57.6267 354.832 57.7547 354.875 57.904L359.739 69.552L364.731 57.904C364.795 57.7547 364.88 57.6267 364.987 57.52C365.115 57.4133 365.296 57.36 365.531 57.36H367.035C367.227 57.36 367.387 57.424 367.515 57.552C367.643 57.68 367.707 57.8293 367.707 58C367.707 58.1067 367.654 58.2987 367.547 58.576L358.459 79.536C358.395 79.6853 358.299 79.8133 358.171 79.92C358.064 80.0267 357.894 80.08 357.659 80.08H356.155ZM376.128 74.32C374.933 74.32 373.909 74.1707 373.056 73.872C372.203 73.5733 371.509 73.2107 370.976 72.784C370.443 72.3573 370.037 71.9307 369.76 71.504C369.504 71.0773 369.365 70.736 369.344 70.48C369.323 70.2453 369.397 70.064 369.568 69.936C369.739 69.808 369.909 69.744 370.08 69.744H371.488C371.616 69.744 371.712 69.7653 371.776 69.808C371.861 69.8293 371.968 69.9147 372.096 70.064C372.373 70.3627 372.683 70.6613 373.024 70.96C373.365 71.2587 373.781 71.504 374.272 71.696C374.784 71.888 375.413 71.984 376.16 71.984C377.248 71.984 378.144 71.7813 378.848 71.376C379.552 70.9493 379.904 70.3307 379.904 69.52C379.904 68.9867 379.755 68.56 379.456 68.24C379.179 67.92 378.667 67.632 377.92 67.376C377.195 67.12 376.192 66.8533 374.912 66.576C373.632 66.2773 372.619 65.9147 371.872 65.488C371.125 65.04 370.592 64.5173 370.272 63.92C369.952 63.3013 369.792 62.608 369.792 61.84C369.792 61.0507 370.027 60.2933 370.496 59.568C370.965 58.8213 371.648 58.2133 372.544 57.744C373.461 57.2747 374.603 57.04 375.968 57.04C377.077 57.04 378.027 57.1787 378.816 57.456C379.605 57.7333 380.256 58.0853 380.768 58.512C381.28 58.9173 381.664 59.3227 381.92 59.728C382.176 60.1333 382.315 60.4747 382.336 60.752C382.357 60.9653 382.293 61.1467 382.144 61.296C381.995 61.424 381.824 61.488 381.632 61.488H380.288C380.139 61.488 380.011 61.456 379.904 61.392C379.819 61.328 379.733 61.2533 379.648 61.168C379.435 60.8907 379.179 60.6133 378.88 60.336C378.603 60.0587 378.229 59.8347 377.76 59.664C377.312 59.472 376.715 59.376 375.968 59.376C374.901 59.376 374.101 59.6 373.568 60.048C373.035 60.496 372.768 61.0613 372.768 61.744C372.768 62.1493 372.885 62.512 373.12 62.832C373.355 63.152 373.803 63.44 374.464 63.696C375.125 63.952 376.107 64.2293 377.408 64.528C378.816 64.8053 379.925 65.1787 380.736 65.648C381.547 66.1173 382.123 66.6613 382.464 67.28C382.805 67.8987 382.976 68.6133 382.976 69.424C382.976 70.32 382.709 71.1413 382.176 71.888C381.664 72.6347 380.896 73.232 379.872 73.68C378.869 74.1067 377.621 74.32 376.128 74.32ZM393.145 74C391.951 74 390.98 73.776 390.233 73.328C389.487 72.8587 388.943 72.208 388.601 71.376C388.26 70.5227 388.089 69.52 388.089 68.368V59.92H385.593C385.38 59.92 385.199 59.856 385.049 59.728C384.921 59.5787 384.857 59.3973 384.857 59.184V58.096C384.857 57.8827 384.921 57.712 385.049 57.584C385.199 57.4347 385.38 57.36 385.593 57.36H388.089V52.016C388.089 51.8027 388.153 51.632 388.281 51.504C388.431 51.3547 388.612 51.28 388.825 51.28H390.329C390.543 51.28 390.713 51.3547 390.841 51.504C390.991 51.632 391.065 51.8027 391.065 52.016V57.36H395.033C395.247 57.36 395.417 57.4347 395.545 57.584C395.695 57.712 395.769 57.8827 395.769 58.096V59.184C395.769 59.3973 395.695 59.5787 395.545 59.728C395.417 59.856 395.247 59.92 395.033 59.92H391.065V68.144C391.065 69.1467 391.236 69.936 391.577 70.512C391.919 71.088 392.527 71.376 393.401 71.376H395.353C395.567 71.376 395.737 71.4507 395.865 71.6C396.015 71.728 396.089 71.8987 396.089 72.112V73.264C396.089 73.4773 396.015 73.6587 395.865 73.808C395.737 73.936 395.567 74 395.353 74H393.145ZM405.773 74.32C403.576 74.32 401.827 73.648 400.525 72.304C399.224 70.9387 398.509 69.0827 398.381 66.736C398.36 66.4587 398.349 66.1067 398.349 65.68C398.349 65.232 398.36 64.8693 398.381 64.592C398.467 63.0773 398.819 61.7547 399.437 60.624C400.056 59.472 400.899 58.5867 401.965 57.968C403.053 57.3493 404.323 57.04 405.773 57.04C407.395 57.04 408.749 57.3813 409.837 58.064C410.947 58.7467 411.789 59.7173 412.365 60.976C412.941 62.2347 413.229 63.7067 413.229 65.392V65.936C413.229 66.1707 413.155 66.352 413.005 66.48C412.877 66.608 412.707 66.672 412.493 66.672H401.421C401.421 66.6933 401.421 66.736 401.421 66.8C401.421 66.864 401.421 66.9173 401.421 66.96C401.464 67.8347 401.656 68.656 401.997 69.424C402.339 70.1707 402.829 70.7787 403.469 71.248C404.109 71.7173 404.877 71.952 405.773 71.952C406.541 71.952 407.181 71.8347 407.693 71.6C408.205 71.3653 408.621 71.1093 408.941 70.832C409.261 70.5333 409.475 70.3093 409.581 70.16C409.773 69.8827 409.923 69.7227 410.029 69.68C410.136 69.616 410.307 69.584 410.541 69.584H412.077C412.291 69.584 412.461 69.648 412.589 69.776C412.739 69.8827 412.803 70.0427 412.781 70.256C412.76 70.576 412.589 70.9707 412.269 71.44C411.949 71.888 411.491 72.336 410.893 72.784C410.296 73.232 409.571 73.6053 408.717 73.904C407.864 74.1813 406.883 74.32 405.773 74.32ZM401.421 64.464H410.189V64.368C410.189 63.408 410.008 62.5547 409.645 61.808C409.304 61.0613 408.803 60.4747 408.141 60.048C407.48 59.6 406.691 59.376 405.773 59.376C404.856 59.376 404.067 59.6 403.405 60.048C402.765 60.4747 402.275 61.0613 401.933 61.808C401.592 62.5547 401.421 63.408 401.421 64.368V64.464ZM417.792 74C417.578 74 417.397 73.936 417.248 73.808C417.12 73.6587 417.056 73.4773 417.056 73.264V58.096C417.056 57.8827 417.12 57.712 417.248 57.584C417.397 57.4347 417.578 57.36 417.792 57.36H419.232C419.445 57.36 419.616 57.4347 419.744 57.584C419.893 57.712 419.968 57.8827 419.968 58.096V59.216C420.458 58.5547 421.077 58.032 421.824 57.648C422.57 57.2427 423.466 57.04 424.512 57.04C426.922 57.0187 428.629 58 429.632 59.984C430.122 59.088 430.837 58.3733 431.776 57.84C432.714 57.3067 433.781 57.04 434.976 57.04C436.085 57.04 437.088 57.296 437.984 57.808C438.901 58.32 439.616 59.0987 440.128 60.144C440.661 61.168 440.928 62.4587 440.928 64.016V73.264C440.928 73.4773 440.853 73.6587 440.704 73.808C440.576 73.936 440.405 74 440.192 74H438.688C438.474 74 438.293 73.936 438.144 73.808C438.016 73.6587 437.952 73.4773 437.952 73.264V64.304C437.952 63.1093 437.781 62.1707 437.44 61.488C437.098 60.8053 436.64 60.3253 436.064 60.048C435.488 59.7707 434.858 59.632 434.176 59.632C433.621 59.632 433.056 59.7707 432.48 60.048C431.904 60.3253 431.424 60.8053 431.04 61.488C430.677 62.1707 430.496 63.1093 430.496 64.304V73.264C430.496 73.4773 430.421 73.6587 430.272 73.808C430.144 73.936 429.973 74 429.76 74H428.256C428.042 74 427.861 73.936 427.712 73.808C427.584 73.6587 427.52 73.4773 427.52 73.264V64.304C427.52 63.1093 427.338 62.1707 426.976 61.488C426.613 60.8053 426.144 60.3253 425.568 60.048C424.992 59.7707 424.384 59.632 423.744 59.632C423.189 59.632 422.624 59.7707 422.048 60.048C421.472 60.3253 420.992 60.8053 420.608 61.488C420.245 62.1707 420.064 63.0987 420.064 64.272V73.264C420.064 73.4773 419.989 73.6587 419.84 73.808C419.712 73.936 419.541 74 419.328 74H417.792Z" fill="url(#paint6_linear_6_14)"/>
<defs>
<filter id="filter0_d_6_14" x="0" y="17.6763" width="73.3516" height="57.751" filterUnits="userSpaceOnUse" color-interpolation-filters="sRGB">
<feFlood flood-opacity="0" result="BackgroundImageFix"/>
<feColorMatrix in="SourceAlpha" type="matrix" values="0 0 0 0 0 0 0 0 0 0 0 0 0 0 0 0 0 0 127 0" result="hardAlpha"/>
<feOffset dy="5"/>
<feGaussianBlur stdDeviation="10"/>
<feComposite in2="hardAlpha" operator="out"/>
<feColorMatrix type="matrix" values="0 0 0 0 0 0 0 0 0 0 0 0 0 0 0 0 0 0 0.04 0"/>
<feBlend mode="normal" in2="BackgroundImageFix" result="effect1_dropShadow_6_14"/>
<feBlend mode="normal" in="SourceGraphic" in2="effect1_dropShadow_6_14" result="shape"/>
</filter>
<linearGradient id="paint0_linear_6_14" x1="83.096" y1="13.4399" x2="191.878" y2="91.7389" gradientUnits="userSpaceOnUse">
<stop stop-color="#00FFB3"/>
<stop offset="1" stop-color="#00FFE0"/>
</linearGradient>
<linearGradient id="paint1_linear_6_14" x1="66.9035" y1="4.20548" x2="26.5637" y2="51.1118" gradientUnits="userSpaceOnUse">
<stop stop-color="#00FFE0" stop-opacity="0.66"/>
<stop offset="1" stop-color="#00FFB3"/>
</linearGradient>
<linearGradient id="paint2_linear_6_14" x1="32.2055" y1="56.9921" x2="43.6922" y2="62.5555" gradientUnits="userSpaceOnUse">
<stop stop-color="white"/>
<stop offset="1" stop-color="#8BFFDC"/>
</linearGradient>
<linearGradient id="paint3_linear_6_14" x1="21.1545" y1="32.6763" x2="54.0829" y2="45.6604" gradientUnits="userSpaceOnUse">
<stop stop-color="white" stop-opacity="0.29"/>
<stop offset="1" stop-color="white" stop-opacity="0.4"/>
</linearGradient>
<linearGradient id="paint4_linear_6_14" x1="21.1545" y1="32.6763" x2="54.0829" y2="45.6604" gradientUnits="userSpaceOnUse">
<stop stop-color="white"/>
<stop offset="1" stop-color="white" stop-opacity="0"/>
</linearGradient>
<linearGradient id="paint5_linear_6_14" x1="307" y1="16" x2="307" y2="74" gradientUnits="userSpaceOnUse">
<stop stop-color="#00FFB3"/>
<stop offset="1" stop-color="#00FFE0"/>
</linearGradient>
<linearGradient id="paint6_linear_6_14" x1="489.349" y1="51.6923" x2="297.544" y2="50.3238" gradientUnits="userSpaceOnUse">
<stop stop-color="#00FFB3"/>
<stop offset="1" stop-color="#00FFE0"/>
</linearGradient>
</defs>
</svg>
