<svg width="1200" height="400" viewBox="0 0 1200 400" fill="none" xmlns="http://www.w3.org/2000/svg">
<g clip-path="url(#clip0_2_3)">
<path d="M0 20C0 8.95431 8.95431 0 20 0H1180C1191.05 0 1200 8.95431 1200 20V390C1200 395.523 1195.52 400 1190 400H9.99999C4.47714 400 0 395.523 0 390V20Z" fill="#E9FFF4"/>
<path d="M218 0H288V60H228C222.477 60 218 55.5228 218 50V0Z" fill="#8AFFD1"/>
<rect x="288" width="70" height="60" fill="#00FFB3"/>
<path d="M358 0H428V50C428 55.5228 423.523 60 418 60H358V0Z" fill="#00DBAF"/>
<path fill-rule="evenodd" clip-rule="evenodd" d="M1113 230C1206.89 230 1283 153.888 1283 60C1283 -33.8884 1206.89 -110 1113 -110C1019.11 -110 943 -33.8884 943 60C943 153.888 1019.11 230 1113 230ZM1113 180C1179.27 180 1233 126.274 1233 60C1233 -6.27417 1179.27 -60 1113 -60C1046.73 -60 993 -6.27417 993 60C993 126.274 1046.73 180 1113 180Z" fill="#8AFFD1"/>
<rect x="1072" y="95" width="60" height="30" rx="15" fill="#8AFFD1"/>
<circle cx="1117" cy="110" r="10" fill="#00DBAF"/>
<rect x="1107" y="55" width="60" height="30" rx="15" fill="#D0FFEC"/>
<circle cx="1122" cy="70" r="10" fill="white"/>
<path d="M883 152L887.33 159.5H878.67L883 152Z" fill="#C8C8C8"/>
<path d="M904.5 152.33L913.16 152.33L908.83 159.83L904.5 152.33Z" fill="#C8C8C8"/>
<path d="M956.5 152.33L965.16 152.33L960.83 159.83L956.5 152.33Z" fill="#C8C8C8"/>
<path d="M1008.5 152.33L1017.16 152.33L1012.83 159.83L1008.5 152.33Z" fill="#C8C8C8"/>
<path d="M935 152L939.33 159.5H930.67L935 152Z" fill="#C8C8C8"/>
<path d="M987 152L991.33 159.5H982.67L987 152Z" fill="#C8C8C8"/>
<path d="M1039 152L1043.33 159.5H1034.67L1039 152Z" fill="#C8C8C8"/>
<path d="M883 64L887.33 71.5H878.67L883 64Z" fill="#C8C8C8"/>
<path d="M904.5 64.3301L913.16 64.3301L908.83 71.8301L904.5 64.3301Z" fill="#C8C8C8"/>
<path d="M956.5 64.3301L965.16 64.3301L960.83 71.8301L956.5 64.3301Z" fill="#C8C8C8"/>
<path d="M1008.5 64.3301L1017.16 64.3301L1012.83 71.8301L1008.5 64.3301Z" fill="#C8C8C8"/>
<path d="M935 64L939.33 71.5H930.67L935 64Z" fill="#C8C8C8"/>
<path d="M987 64L991.33 71.5H982.67L987 64Z" fill="#C8C8C8"/>
<path d="M1039 64L1043.33 71.5H1034.67L1039 64Z" fill="#C8C8C8"/>
<path d="M883 86L887.33 93.5H878.67L883 86Z" fill="#C8C8C8"/>
<path d="M904.5 86.3301L913.16 86.3301L908.83 93.8301L904.5 86.3301Z" fill="#C8C8C8"/>
<path d="M956.5 86.3301L965.16 86.3301L960.83 93.8301L956.5 86.3301Z" fill="#C8C8C8"/>
<path d="M1008.5 86.3301L1017.16 86.3301L1012.83 93.8301L1008.5 86.3301Z" fill="#C8C8C8"/>
<path d="M935 86L939.33 93.5H930.67L935 86Z" fill="#C8C8C8"/>
<path d="M987 86L991.33 93.5H982.67L987 86Z" fill="#C8C8C8"/>
<path d="M1039 86L1043.33 93.5H1034.67L1039 86Z" fill="#C8C8C8"/>
<path d="M883 108L887.33 115.5H878.67L883 108Z" fill="#C8C8C8"/>
<path d="M904.5 108.33L913.16 108.33L908.83 115.83L904.5 108.33Z" fill="#C8C8C8"/>
<path d="M956.5 108.33L965.16 108.33L960.83 115.83L956.5 108.33Z" fill="#C8C8C8"/>
<path d="M1008.5 108.33L1017.16 108.33L1012.83 115.83L1008.5 108.33Z" fill="#C8C8C8"/>
<path d="M935 108L939.33 115.5H930.67L935 108Z" fill="#C8C8C8"/>
<path d="M987 108L991.33 115.5H982.67L987 108Z" fill="#C8C8C8"/>
<path d="M1039 108L1043.33 115.5H1034.67L1039 108Z" fill="#C8C8C8"/>
<path d="M883 130L887.33 137.5H878.67L883 130Z" fill="#C8C8C8"/>
<path d="M904.5 130.33L913.16 130.33L908.83 137.83L904.5 130.33Z" fill="#C8C8C8"/>
<path d="M956.5 130.33L965.16 130.33L960.83 137.83L956.5 130.33Z" fill="#C8C8C8"/>
<path d="M1008.5 130.33L1017.16 130.33L1012.83 137.83L1008.5 130.33Z" fill="#C8C8C8"/>
<path d="M935 130L939.33 137.5H930.67L935 130Z" fill="#C8C8C8"/>
<path d="M987 130L991.33 137.5H982.67L987 130Z" fill="#C8C8C8"/>
<path d="M1039 130L1043.33 137.5H1034.67L1039 130Z" fill="#C8C8C8"/>
<path d="M121 361L128.5 356.67V365.33L121 361Z" fill="#C8C8C8"/>
<path d="M121.33 339.5L121.33 330.84L128.83 335.17L121.33 339.5Z" fill="#C8C8C8"/>
<path d="M121.33 287.5L121.33 278.84L128.83 283.17L121.33 287.5Z" fill="#C8C8C8"/>
<path d="M121.33 235.5L121.33 226.84L128.83 231.17L121.33 235.5Z" fill="#C8C8C8"/>
<path d="M121 309L128.5 304.67V313.33L121 309Z" fill="#C8C8C8"/>
<path d="M121 257L128.5 252.67V261.33L121 257Z" fill="#C8C8C8"/>
<path d="M121 205L128.5 200.67V209.33L121 205Z" fill="#C8C8C8"/>
<path d="M33 361L40.5 356.67V365.33L33 361Z" fill="#C8C8C8"/>
<path d="M33.3301 339.5L33.3301 330.84L40.8301 335.17L33.3301 339.5Z" fill="#C8C8C8"/>
<path d="M33.3301 287.5L33.3301 278.84L40.8301 283.17L33.3301 287.5Z" fill="#C8C8C8"/>
<path d="M33.3301 235.5L33.3301 226.84L40.8301 231.17L33.3301 235.5Z" fill="#C8C8C8"/>
<path d="M33 309L40.5 304.67V313.33L33 309Z" fill="#C8C8C8"/>
<path d="M33 257L40.5 252.67V261.33L33 257Z" fill="#C8C8C8"/>
<path d="M33 205L40.5 200.67V209.33L33 205Z" fill="#C8C8C8"/>
<path d="M55 361L62.5 356.67V365.33L55 361Z" fill="#C8C8C8"/>
<path d="M55.3301 339.5L55.3301 330.84L62.8301 335.17L55.3301 339.5Z" fill="#C8C8C8"/>
<path d="M55.3301 287.5L55.3301 278.84L62.8301 283.17L55.3301 287.5Z" fill="#C8C8C8"/>
<path d="M55.3301 235.5L55.3301 226.84L62.8301 231.17L55.3301 235.5Z" fill="#C8C8C8"/>
<path d="M55 309L62.5 304.67V313.33L55 309Z" fill="#C8C8C8"/>
<path d="M55 257L62.5 252.67V261.33L55 257Z" fill="#C8C8C8"/>
<path d="M55 205L62.5 200.67V209.33L55 205Z" fill="#C8C8C8"/>
<path d="M77 361L84.5 356.67V365.33L77 361Z" fill="#C8C8C8"/>
<path d="M77.3301 339.5L77.3301 330.84L84.8301 335.17L77.3301 339.5Z" fill="#C8C8C8"/>
<path d="M77.3301 287.5L77.3301 278.84L84.8301 283.17L77.3301 287.5Z" fill="#C8C8C8"/>
<path d="M77.3301 235.5L77.3301 226.84L84.8301 231.17L77.3301 235.5Z" fill="#C8C8C8"/>
<path d="M77 309L84.5 304.67V313.33L77 309Z" fill="#C8C8C8"/>
<path d="M77 257L84.5 252.67V261.33L77 257Z" fill="#C8C8C8"/>
<path d="M77 205L84.5 200.67V209.33L77 205Z" fill="#C8C8C8"/>
<path d="M99 361L106.5 356.67V365.33L99 361Z" fill="#C8C8C8"/>
<path d="M99.3301 339.5L99.3301 330.84L106.83 335.17L99.3301 339.5Z" fill="#C8C8C8"/>
<path d="M99.3301 287.5L99.3301 278.84L106.83 283.17L99.3301 287.5Z" fill="#C8C8C8"/>
<path d="M99.3301 235.5L99.3301 226.84L106.83 231.17L99.3301 235.5Z" fill="#C8C8C8"/>
<path d="M99 309L106.5 304.67V313.33L99 309Z" fill="#C8C8C8"/>
<path d="M99 257L106.5 252.67V261.33L99 257Z" fill="#C8C8C8"/>
<path d="M99 205L106.5 200.67V209.33L99 205Z" fill="#C8C8C8"/>
<path d="M90 60.4857C90 78.9942 74.5333 88.3849 55.4543 88.3849C36.3752 88.3849 37.575 78.9942 37.575 60.4857C37.575 41.9772 36.3752 32 55.4543 32C74.5333 32 90 41.9772 90 60.4857Z" fill="url(#paint0_linear_2_3)"/>
<path d="M48.8655 73.795C51.4844 73.795 53.6074 73.7328 53.6074 76.2184C53.6074 78.704 51.4844 80.719 48.8655 80.719C46.2467 80.719 44.1237 78.704 44.1237 76.2184C44.1237 73.7328 46.2467 73.795 48.8655 73.795Z" fill="url(#paint1_linear_2_3)"/>
<g filter="url(#filter0_d_2_3)">
<rect x="31" y="48.8168" width="35.7769" height="19.0418" rx="9.52091" fill="url(#paint2_linear_2_3)" shape-rendering="crispEdges"/>
</g>
<rect x="31" y="48.8168" width="35.7769" height="19.0418" rx="9.52091" fill="url(#paint3_linear_2_3)"/>
<path d="M41.2086 58.4613C41.2086 61.6025 41.2741 64.1489 38.6574 64.1489C36.0406 64.1489 33.9193 61.6025 33.9193 58.4613C33.9193 55.3201 36.0406 52.7736 38.6574 52.7736C41.2741 52.7736 41.2086 55.3201 41.2086 58.4613Z" fill="white"/>
<g filter="url(#filter1_d_2_3)">
<path d="M720 168H1020V336C1020 341.523 1015.52 346 1010 346H730C724.477 346 720 341.523 720 336V168Z" fill="white"/>
<path d="M720 156C720 150.477 724.477 146 730 146H1010C1015.52 146 1020 150.477 1020 156V168H720V156Z" fill="#00FFB3" fill-opacity="0.46"/>
<path d="M737.2 228C736.987 228 736.787 227.92 736.6 227.76C736.44 227.573 736.36 227.373 736.36 227.16C736.36 227.027 736.373 226.907 736.4 226.8L745.8 201.12C745.88 200.827 746.04 200.573 746.28 200.36C746.547 200.12 746.907 200 747.36 200H753.28C753.733 200 754.08 200.12 754.32 200.36C754.587 200.573 754.76 200.827 754.84 201.12L764.2 226.8C764.253 226.907 764.28 227.027 764.28 227.16C764.28 227.373 764.187 227.573 764 227.76C763.84 227.92 763.64 228 763.4 228H758.48C758.08 228 757.773 227.907 757.56 227.72C757.373 227.507 757.253 227.32 757.2 227.16L755.64 223.08H744.96L743.44 227.16C743.387 227.32 743.267 227.507 743.08 227.72C742.893 227.907 742.573 228 742.12 228H737.2ZM746.6 217.32H754.04L750.28 206.76L746.6 217.32ZM779.713 228.4C778.219 228.4 776.966 228.147 775.953 227.64C774.966 227.133 774.153 226.493 773.513 225.72V227C773.513 227.293 773.406 227.533 773.193 227.72C773.006 227.907 772.779 228 772.513 228H767.993C767.699 228 767.459 227.907 767.273 227.72C767.086 227.533 766.993 227.293 766.993 227V200.6C766.993 200.307 767.086 200.067 767.273 199.88C767.459 199.693 767.699 199.6 767.993 199.6H772.873C773.166 199.6 773.406 199.693 773.593 199.88C773.779 200.067 773.873 200.307 773.873 200.6V209.16C774.513 208.467 775.313 207.907 776.273 207.48C777.259 207.027 778.406 206.8 779.713 206.8C781.046 206.8 782.219 207.027 783.233 207.48C784.273 207.907 785.153 208.533 785.873 209.36C786.593 210.187 787.153 211.173 787.553 212.32C787.953 213.467 788.179 214.76 788.233 216.2C788.259 216.707 788.273 217.173 788.273 217.6C788.273 218 788.259 218.467 788.233 219C788.179 220.493 787.939 221.827 787.513 223C787.113 224.147 786.553 225.133 785.833 225.96C785.113 226.76 784.246 227.373 783.233 227.8C782.219 228.2 781.046 228.4 779.713 228.4ZM777.553 223.04C778.459 223.04 779.166 222.853 779.673 222.48C780.179 222.107 780.539 221.6 780.753 220.96C780.993 220.32 781.139 219.613 781.193 218.84C781.246 218.013 781.246 217.187 781.193 216.36C781.139 215.587 780.993 214.88 780.753 214.24C780.539 213.6 780.179 213.093 779.673 212.72C779.166 212.347 778.459 212.16 777.553 212.16C776.726 212.16 776.046 212.347 775.513 212.72C774.979 213.067 774.579 213.533 774.313 214.12C774.046 214.68 773.899 215.293 773.873 215.96C773.846 216.467 773.833 216.96 773.833 217.44C773.833 217.92 773.846 218.427 773.873 218.96C773.899 219.68 774.033 220.347 774.273 220.96C774.513 221.573 774.899 222.08 775.433 222.48C775.966 222.853 776.673 223.04 777.553 223.04Z" fill="black" fill-opacity="0.32"/>
<rect x="738" y="242" width="125" height="4" rx="2" fill="#D9D9D9"/>
<rect x="738" y="251" width="99" height="4" rx="2" fill="#D9D9D9"/>
</g>
<path d="M176.8 146C176.507 146 176.267 145.907 176.08 145.72C175.893 145.533 175.8 145.293 175.8 145V119C175.8 118.707 175.893 118.467 176.08 118.28C176.267 118.093 176.507 118 176.8 118H187.2C189.813 118 192.04 118.427 193.88 119.28C195.72 120.107 197.133 121.333 198.12 122.96C199.107 124.56 199.64 126.547 199.72 128.92C199.747 130.093 199.76 131.12 199.76 132C199.76 132.88 199.747 133.893 199.72 135.04C199.613 137.52 199.08 139.573 198.12 141.2C197.187 142.827 195.813 144.04 194 144.84C192.213 145.613 190.013 146 187.4 146H176.8ZM182.96 140.24H187.2C188.347 140.24 189.293 140.067 190.04 139.72C190.813 139.347 191.387 138.773 191.76 138C192.16 137.227 192.373 136.213 192.4 134.96C192.453 134.187 192.48 133.493 192.48 132.88C192.507 132.267 192.507 131.653 192.48 131.04C192.48 130.427 192.453 129.747 192.4 129C192.347 127.187 191.867 125.867 190.96 125.04C190.08 124.187 188.76 123.76 187 123.76H182.96V140.24ZM213.593 146.4C210.446 146.4 207.939 145.547 206.073 143.84C204.206 142.133 203.233 139.6 203.153 136.24C203.153 136.053 203.153 135.813 203.153 135.52C203.153 135.227 203.153 135 203.153 134.84C203.233 132.733 203.699 130.933 204.553 129.44C205.433 127.92 206.633 126.773 208.153 126C209.699 125.2 211.499 124.8 213.553 124.8C215.899 124.8 217.833 125.267 219.353 126.2C220.899 127.133 222.059 128.4 222.833 130C223.606 131.6 223.993 133.427 223.993 135.48V136.44C223.993 136.733 223.886 136.973 223.673 137.16C223.486 137.347 223.259 137.44 222.993 137.44H210.193C210.193 137.467 210.193 137.507 210.193 137.56C210.193 137.613 210.193 137.667 210.193 137.72C210.219 138.493 210.353 139.2 210.593 139.84C210.833 140.48 211.206 140.987 211.713 141.36C212.219 141.733 212.833 141.92 213.553 141.92C214.086 141.92 214.526 141.84 214.873 141.68C215.246 141.493 215.553 141.293 215.793 141.08C216.033 140.84 216.219 140.64 216.353 140.48C216.593 140.213 216.779 140.053 216.913 140C217.073 139.92 217.313 139.88 217.633 139.88H222.593C222.859 139.88 223.073 139.96 223.233 140.12C223.419 140.253 223.499 140.453 223.473 140.72C223.446 141.173 223.219 141.72 222.793 142.36C222.366 143 221.739 143.64 220.913 144.28C220.113 144.893 219.099 145.4 217.873 145.8C216.646 146.2 215.219 146.4 213.593 146.4ZM210.193 133.48H216.953V133.4C216.953 132.547 216.819 131.8 216.553 131.16C216.313 130.52 215.926 130.027 215.393 129.68C214.886 129.333 214.273 129.16 213.553 129.16C212.833 129.16 212.219 129.333 211.713 129.68C211.233 130.027 210.859 130.52 210.593 131.16C210.326 131.8 210.193 132.547 210.193 133.4V133.48ZM236.303 146.4C234.569 146.4 233.089 146.213 231.863 145.84C230.663 145.44 229.676 144.96 228.903 144.4C228.156 143.84 227.596 143.267 227.223 142.68C226.849 142.067 226.649 141.547 226.623 141.12C226.596 140.827 226.689 140.587 226.903 140.4C227.116 140.187 227.343 140.08 227.583 140.08H232.143C232.223 140.08 232.289 140.093 232.343 140.12C232.396 140.147 232.476 140.2 232.583 140.28C232.929 140.467 233.276 140.707 233.623 141C233.969 141.267 234.369 141.507 234.823 141.72C235.276 141.933 235.823 142.04 236.463 142.04C237.209 142.04 237.836 141.893 238.343 141.6C238.849 141.307 239.103 140.867 239.103 140.28C239.103 139.853 238.983 139.507 238.743 139.24C238.503 138.947 238.009 138.667 237.263 138.4C236.543 138.133 235.449 137.867 233.983 137.6C232.596 137.28 231.383 136.867 230.343 136.36C229.303 135.827 228.503 135.147 227.943 134.32C227.383 133.467 227.103 132.44 227.103 131.24C227.103 130.173 227.449 129.147 228.143 128.16C228.836 127.173 229.849 126.373 231.183 125.76C232.516 125.12 234.156 124.8 236.103 124.8C237.649 124.8 238.983 124.987 240.103 125.36C241.249 125.707 242.209 126.16 242.983 126.72C243.783 127.28 244.383 127.853 244.783 128.44C245.183 129.027 245.396 129.56 245.423 130.04C245.449 130.307 245.369 130.547 245.183 130.76C244.996 130.947 244.783 131.04 244.543 131.04H240.383C240.276 131.04 240.169 131.027 240.063 131C239.956 130.947 239.863 130.893 239.783 130.84C239.463 130.68 239.143 130.467 238.823 130.2C238.503 129.933 238.129 129.693 237.703 129.48C237.276 129.267 236.743 129.16 236.103 129.16C235.383 129.16 234.823 129.32 234.423 129.64C234.023 129.96 233.823 130.373 233.823 130.88C233.823 131.227 233.929 131.547 234.143 131.84C234.383 132.133 234.849 132.4 235.543 132.64C236.263 132.88 237.369 133.147 238.863 133.44C240.703 133.733 242.169 134.213 243.263 134.88C244.356 135.52 245.129 136.28 245.583 137.16C246.036 138.013 246.263 138.92 246.263 139.88C246.263 141.16 245.876 142.293 245.103 143.28C244.356 144.267 243.236 145.04 241.743 145.6C240.249 146.133 238.436 146.4 236.303 146.4ZM260.375 146C258.668 146 257.188 145.733 255.935 145.2C254.708 144.64 253.762 143.787 253.095 142.64C252.428 141.467 252.095 139.96 252.095 138.12V130.44H248.975C248.682 130.44 248.428 130.347 248.215 130.16C248.028 129.973 247.935 129.733 247.935 129.44V126.2C247.935 125.907 248.028 125.667 248.215 125.48C248.428 125.293 248.682 125.2 248.975 125.2H252.095V118.6C252.095 118.307 252.188 118.067 252.375 117.88C252.588 117.693 252.828 117.6 253.095 117.6H257.735C258.028 117.6 258.268 117.693 258.455 117.88C258.642 118.067 258.735 118.307 258.735 118.6V125.2H263.735C264.028 125.2 264.268 125.293 264.455 125.48C264.642 125.667 264.735 125.907 264.735 126.2V129.44C264.735 129.733 264.642 129.973 264.455 130.16C264.268 130.347 264.028 130.44 263.735 130.44H258.735V137.56C258.735 138.467 258.908 139.187 259.255 139.72C259.602 140.253 260.188 140.52 261.015 140.52H264.095C264.388 140.52 264.628 140.613 264.815 140.8C265.002 140.987 265.095 141.227 265.095 141.52V145C265.095 145.293 265.002 145.533 264.815 145.72C264.628 145.907 264.388 146 264.095 146H260.375ZM278.007 146.4C274.86 146.4 272.354 145.547 270.487 143.84C268.62 142.133 267.647 139.6 267.567 136.24C267.567 136.053 267.567 135.813 267.567 135.52C267.567 135.227 267.567 135 267.567 134.84C267.647 132.733 268.114 130.933 268.967 129.44C269.847 127.92 271.047 126.773 272.567 126C274.114 125.2 275.914 124.8 277.967 124.8C280.314 124.8 282.247 125.267 283.767 126.2C285.314 127.133 286.474 128.4 287.247 130C288.02 131.6 288.407 133.427 288.407 135.48V136.44C288.407 136.733 288.3 136.973 288.087 137.16C287.9 137.347 287.674 137.44 287.407 137.44H274.607C274.607 137.467 274.607 137.507 274.607 137.56C274.607 137.613 274.607 137.667 274.607 137.72C274.634 138.493 274.767 139.2 275.007 139.84C275.247 140.48 275.62 140.987 276.127 141.36C276.634 141.733 277.247 141.92 277.967 141.92C278.5 141.92 278.94 141.84 279.287 141.68C279.66 141.493 279.967 141.293 280.207 141.08C280.447 140.84 280.634 140.64 280.767 140.48C281.007 140.213 281.194 140.053 281.327 140C281.487 139.92 281.727 139.88 282.047 139.88H287.007C287.274 139.88 287.487 139.96 287.647 140.12C287.834 140.253 287.914 140.453 287.887 140.72C287.86 141.173 287.634 141.72 287.207 142.36C286.78 143 286.154 143.64 285.327 144.28C284.527 144.893 283.514 145.4 282.287 145.8C281.06 146.2 279.634 146.4 278.007 146.4ZM274.607 133.48H281.367V133.4C281.367 132.547 281.234 131.8 280.967 131.16C280.727 130.52 280.34 130.027 279.807 129.68C279.3 129.333 278.687 129.16 277.967 129.16C277.247 129.16 276.634 129.333 276.127 129.68C275.647 130.027 275.274 130.52 275.007 131.16C274.74 131.8 274.607 132.547 274.607 133.4V133.48ZM293.157 146C292.864 146 292.624 145.907 292.437 145.72C292.25 145.533 292.157 145.293 292.157 145V126.2C292.157 125.933 292.25 125.707 292.437 125.52C292.624 125.307 292.864 125.2 293.157 125.2H297.757C298.05 125.2 298.29 125.307 298.477 125.52C298.664 125.707 298.757 125.933 298.757 126.2V127.8C299.477 126.973 300.33 126.333 301.317 125.88C302.33 125.427 303.464 125.2 304.717 125.2H306.477C306.744 125.2 306.97 125.293 307.157 125.48C307.37 125.667 307.477 125.907 307.477 126.2V130.32C307.477 130.587 307.37 130.827 307.157 131.04C306.97 131.227 306.744 131.32 306.477 131.32H302.597C301.504 131.32 300.65 131.627 300.037 132.24C299.45 132.827 299.157 133.667 299.157 134.76V145C299.157 145.293 299.05 145.533 298.837 145.72C298.65 145.907 298.41 146 298.117 146H293.157ZM319.456 146C319.163 146 318.923 145.907 318.736 145.72C318.55 145.533 318.456 145.293 318.456 145V119C318.456 118.707 318.55 118.467 318.736 118.28C318.923 118.093 319.163 118 319.456 118H329.856C332.47 118 334.696 118.427 336.536 119.28C338.376 120.107 339.79 121.333 340.776 122.96C341.763 124.56 342.296 126.547 342.376 128.92C342.403 130.093 342.416 131.12 342.416 132C342.416 132.88 342.403 133.893 342.376 135.04C342.27 137.52 341.736 139.573 340.776 141.2C339.843 142.827 338.47 144.04 336.656 144.84C334.87 145.613 332.67 146 330.056 146H319.456ZM325.616 140.24H329.856C331.003 140.24 331.95 140.067 332.696 139.72C333.47 139.347 334.043 138.773 334.416 138C334.816 137.227 335.03 136.213 335.056 134.96C335.11 134.187 335.136 133.493 335.136 132.88C335.163 132.267 335.163 131.653 335.136 131.04C335.136 130.427 335.11 129.747 335.056 129C335.003 127.187 334.523 125.867 333.616 125.04C332.736 124.187 331.416 123.76 329.656 123.76H325.616V140.24ZM356.249 146.4C353.102 146.4 350.596 145.547 348.729 143.84C346.862 142.133 345.889 139.6 345.809 136.24C345.809 136.053 345.809 135.813 345.809 135.52C345.809 135.227 345.809 135 345.809 134.84C345.889 132.733 346.356 130.933 347.209 129.44C348.089 127.92 349.289 126.773 350.809 126C352.356 125.2 354.156 124.8 356.209 124.8C358.556 124.8 360.489 125.267 362.009 126.2C363.556 127.133 364.716 128.4 365.489 130C366.262 131.6 366.649 133.427 366.649 135.48V136.44C366.649 136.733 366.542 136.973 366.329 137.16C366.142 137.347 365.916 137.44 365.649 137.44H352.849C352.849 137.467 352.849 137.507 352.849 137.56C352.849 137.613 352.849 137.667 352.849 137.72C352.876 138.493 353.009 139.2 353.249 139.84C353.489 140.48 353.862 140.987 354.369 141.36C354.876 141.733 355.489 141.92 356.209 141.92C356.742 141.92 357.182 141.84 357.529 141.68C357.902 141.493 358.209 141.293 358.449 141.08C358.689 140.84 358.876 140.64 359.009 140.48C359.249 140.213 359.436 140.053 359.569 140C359.729 139.92 359.969 139.88 360.289 139.88H365.249C365.516 139.88 365.729 139.96 365.889 140.12C366.076 140.253 366.156 140.453 366.129 140.72C366.102 141.173 365.876 141.72 365.449 142.36C365.022 143 364.396 143.64 363.569 144.28C362.769 144.893 361.756 145.4 360.529 145.8C359.302 146.2 357.876 146.4 356.249 146.4ZM352.849 133.48H359.609V133.4C359.609 132.547 359.476 131.8 359.209 131.16C358.969 130.52 358.582 130.027 358.049 129.68C357.542 129.333 356.929 129.16 356.209 129.16C355.489 129.16 354.876 129.333 354.369 129.68C353.889 130.027 353.516 130.52 353.249 131.16C352.982 131.8 352.849 132.547 352.849 133.4V133.48ZM378.959 146.4C377.226 146.4 375.746 146.213 374.519 145.84C373.319 145.44 372.332 144.96 371.559 144.4C370.812 143.84 370.252 143.267 369.879 142.68C369.506 142.067 369.306 141.547 369.279 141.12C369.252 140.827 369.346 140.587 369.559 140.4C369.772 140.187 369.999 140.08 370.239 140.08H374.799C374.879 140.08 374.946 140.093 374.999 140.12C375.052 140.147 375.132 140.2 375.239 140.28C375.586 140.467 375.932 140.707 376.279 141C376.626 141.267 377.026 141.507 377.479 141.72C377.932 141.933 378.479 142.04 379.119 142.04C379.866 142.04 380.492 141.893 380.999 141.6C381.506 141.307 381.759 140.867 381.759 140.28C381.759 139.853 381.639 139.507 381.399 139.24C381.159 138.947 380.666 138.667 379.919 138.4C379.199 138.133 378.106 137.867 376.639 137.6C375.252 137.28 374.039 136.867 372.999 136.36C371.959 135.827 371.159 135.147 370.599 134.32C370.039 133.467 369.759 132.44 369.759 131.24C369.759 130.173 370.106 129.147 370.799 128.16C371.492 127.173 372.506 126.373 373.839 125.76C375.172 125.12 376.812 124.8 378.759 124.8C380.306 124.8 381.639 124.987 382.759 125.36C383.906 125.707 384.866 126.16 385.639 126.72C386.439 127.28 387.039 127.853 387.439 128.44C387.839 129.027 388.052 129.56 388.079 130.04C388.106 130.307 388.026 130.547 387.839 130.76C387.652 130.947 387.439 131.04 387.199 131.04H383.039C382.932 131.04 382.826 131.027 382.719 131C382.612 130.947 382.519 130.893 382.439 130.84C382.119 130.68 381.799 130.467 381.479 130.2C381.159 129.933 380.786 129.693 380.359 129.48C379.932 129.267 379.399 129.16 378.759 129.16C378.039 129.16 377.479 129.32 377.079 129.64C376.679 129.96 376.479 130.373 376.479 130.88C376.479 131.227 376.586 131.547 376.799 131.84C377.039 132.133 377.506 132.4 378.199 132.64C378.919 132.88 380.026 133.147 381.519 133.44C383.359 133.733 384.826 134.213 385.919 134.88C387.012 135.52 387.786 136.28 388.239 137.16C388.692 138.013 388.919 138.92 388.919 139.88C388.919 141.16 388.532 142.293 387.759 143.28C387.012 144.267 385.892 145.04 384.399 145.6C382.906 146.133 381.092 146.4 378.959 146.4ZM393.508 146C393.215 146 392.975 145.907 392.788 145.72C392.602 145.533 392.508 145.293 392.508 145V126.2C392.508 125.907 392.602 125.667 392.788 125.48C392.975 125.293 393.215 125.2 393.508 125.2H398.228C398.495 125.2 398.722 125.293 398.908 125.48C399.122 125.667 399.228 125.907 399.228 126.2V145C399.228 145.293 399.122 145.533 398.908 145.72C398.722 145.907 398.495 146 398.228 146H393.508ZM393.468 122.2C393.175 122.2 392.935 122.107 392.748 121.92C392.562 121.733 392.468 121.493 392.468 121.2V117.64C392.468 117.347 392.562 117.107 392.748 116.92C392.935 116.707 393.175 116.6 393.468 116.6H398.228C398.522 116.6 398.762 116.707 398.948 116.92C399.162 117.107 399.268 117.347 399.268 117.64V121.2C399.268 121.493 399.162 121.733 398.948 121.92C398.762 122.107 398.522 122.2 398.228 122.2H393.468ZM414.115 154.8C412.061 154.8 410.355 154.533 408.995 154C407.661 153.467 406.595 152.827 405.795 152.08C405.021 151.333 404.461 150.587 404.115 149.84C403.768 149.12 403.581 148.547 403.555 148.12C403.528 147.827 403.621 147.587 403.835 147.4C404.048 147.213 404.301 147.12 404.595 147.12H409.675C409.915 147.12 410.115 147.173 410.275 147.28C410.461 147.413 410.608 147.627 410.715 147.92C410.848 148.213 411.021 148.52 411.235 148.84C411.475 149.16 411.795 149.413 412.195 149.6C412.621 149.813 413.195 149.92 413.915 149.92C414.715 149.92 415.381 149.787 415.915 149.52C416.448 149.28 416.848 148.867 417.115 148.28C417.381 147.72 417.515 146.96 417.515 146V143.32C416.901 143.987 416.115 144.533 415.155 144.96C414.195 145.36 413.035 145.56 411.675 145.56C410.315 145.56 409.115 145.36 408.075 144.96C407.035 144.56 406.168 143.96 405.475 143.16C404.781 142.36 404.235 141.387 403.835 140.24C403.461 139.093 403.235 137.773 403.155 136.28C403.128 135.587 403.128 134.893 403.155 134.2C403.235 132.76 403.461 131.467 403.835 130.32C404.208 129.173 404.741 128.187 405.435 127.36C406.155 126.533 407.035 125.907 408.075 125.48C409.115 125.027 410.315 124.8 411.675 124.8C413.115 124.8 414.341 125.08 415.355 125.64C416.395 126.173 417.248 126.853 417.915 127.68V126.2C417.915 125.933 418.008 125.707 418.195 125.52C418.381 125.307 418.621 125.2 418.915 125.2H423.515C423.808 125.2 424.048 125.307 424.235 125.52C424.448 125.707 424.555 125.933 424.555 126.2V145.44C424.555 147.467 424.141 149.173 423.315 150.56C422.488 151.947 421.301 153 419.755 153.72C418.208 154.44 416.328 154.8 414.115 154.8ZM413.835 140.36C414.688 140.36 415.381 140.173 415.915 139.8C416.448 139.427 416.835 138.947 417.075 138.36C417.341 137.773 417.488 137.147 417.515 136.48C417.541 136.187 417.555 135.773 417.555 135.24C417.555 134.707 417.541 134.307 417.515 134.04C417.488 133.347 417.341 132.707 417.075 132.12C416.835 131.533 416.448 131.067 415.915 130.72C415.381 130.347 414.688 130.16 413.835 130.16C412.955 130.16 412.248 130.347 411.715 130.72C411.208 131.093 410.835 131.6 410.595 132.24C410.381 132.88 410.248 133.587 410.195 134.36C410.168 134.947 410.168 135.547 410.195 136.16C410.248 136.933 410.381 137.64 410.595 138.28C410.835 138.92 411.208 139.427 411.715 139.8C412.248 140.173 412.955 140.36 413.835 140.36ZM430.266 146C429.973 146 429.733 145.907 429.546 145.72C429.36 145.533 429.266 145.293 429.266 145V126.2C429.266 125.907 429.36 125.667 429.546 125.48C429.733 125.293 429.973 125.2 430.266 125.2H434.866C435.16 125.2 435.4 125.293 435.586 125.48C435.773 125.667 435.866 125.907 435.866 126.2V127.72C436.56 126.893 437.466 126.2 438.586 125.64C439.706 125.08 441.026 124.8 442.546 124.8C444.093 124.8 445.453 125.147 446.626 125.84C447.826 126.533 448.76 127.56 449.426 128.92C450.12 130.253 450.466 131.893 450.466 133.84V145C450.466 145.293 450.36 145.533 450.146 145.72C449.96 145.907 449.733 146 449.466 146H444.426C444.16 146 443.92 145.907 443.706 145.72C443.52 145.533 443.426 145.293 443.426 145V134.08C443.426 132.827 443.12 131.867 442.506 131.2C441.92 130.507 441.04 130.16 439.866 130.16C438.773 130.16 437.893 130.507 437.226 131.2C436.586 131.867 436.266 132.827 436.266 134.08V145C436.266 145.293 436.16 145.533 435.946 145.72C435.76 145.907 435.533 146 435.266 146H430.266ZM474.326 146.4C471.659 146.4 469.446 146.027 467.686 145.28C465.926 144.507 464.593 143.507 463.686 142.28C462.779 141.053 462.299 139.747 462.246 138.36C462.246 138.147 462.326 137.96 462.486 137.8C462.673 137.613 462.886 137.52 463.126 137.52H468.166C468.539 137.52 468.819 137.587 469.006 137.72C469.219 137.853 469.406 138.027 469.566 138.24C469.779 138.64 470.073 139.027 470.446 139.4C470.846 139.773 471.353 140.08 471.966 140.32C472.606 140.533 473.393 140.64 474.326 140.64C475.873 140.64 477.033 140.4 477.806 139.92C478.606 139.44 479.006 138.787 479.006 137.96C479.006 137.373 478.793 136.893 478.366 136.52C477.939 136.12 477.246 135.773 476.286 135.48C475.353 135.16 474.099 134.84 472.526 134.52C470.499 134.093 468.766 133.547 467.326 132.88C465.913 132.187 464.833 131.293 464.086 130.2C463.339 129.08 462.966 127.693 462.966 126.04C462.966 124.413 463.419 122.96 464.326 121.68C465.259 120.4 466.553 119.4 468.206 118.68C469.859 117.96 471.819 117.6 474.086 117.6C475.926 117.6 477.539 117.84 478.926 118.32C480.339 118.8 481.526 119.44 482.486 120.24C483.446 121.04 484.166 121.893 484.646 122.8C485.153 123.68 485.419 124.547 485.446 125.4C485.446 125.613 485.366 125.813 485.206 126C485.046 126.16 484.846 126.24 484.606 126.24H479.326C479.033 126.24 478.779 126.187 478.566 126.08C478.353 125.973 478.166 125.8 478.006 125.56C477.846 124.973 477.419 124.467 476.726 124.04C476.059 123.587 475.179 123.36 474.086 123.36C472.913 123.36 471.993 123.573 471.326 124C470.686 124.4 470.366 125.027 470.366 125.88C470.366 126.413 470.539 126.88 470.886 127.28C471.259 127.68 471.859 128.027 472.686 128.32C473.539 128.613 474.699 128.92 476.166 129.24C478.593 129.693 480.553 130.267 482.046 130.96C483.539 131.627 484.633 132.507 485.326 133.6C486.019 134.667 486.366 136.013 486.366 137.64C486.366 139.453 485.846 141.027 484.806 142.36C483.793 143.667 482.379 144.667 480.566 145.36C478.753 146.053 476.673 146.4 474.326 146.4ZM493.693 153.6C493.453 153.6 493.253 153.52 493.093 153.36C492.933 153.2 492.853 153 492.853 152.76C492.853 152.707 492.853 152.627 492.853 152.52C492.88 152.44 492.92 152.347 492.973 152.24L496.093 144.72L488.413 126.56C488.333 126.373 488.293 126.213 488.293 126.08C488.346 125.84 488.453 125.64 488.613 125.48C488.773 125.293 488.973 125.2 489.213 125.2H493.773C494.12 125.2 494.373 125.293 494.533 125.48C494.72 125.64 494.84 125.827 494.893 126.04L499.493 137.68L504.173 126.04C504.28 125.827 504.413 125.64 504.573 125.48C504.76 125.293 505.026 125.2 505.373 125.2H509.853C510.093 125.2 510.293 125.293 510.453 125.48C510.64 125.64 510.733 125.827 510.733 126.04C510.733 126.173 510.693 126.347 510.613 126.56L499.293 152.76C499.213 152.973 499.08 153.16 498.893 153.32C498.706 153.507 498.44 153.6 498.093 153.6H493.693ZM521.576 146.4C519.843 146.4 518.363 146.213 517.136 145.84C515.936 145.44 514.95 144.96 514.176 144.4C513.43 143.84 512.87 143.267 512.496 142.68C512.123 142.067 511.923 141.547 511.896 141.12C511.87 140.827 511.963 140.587 512.176 140.4C512.39 140.187 512.616 140.08 512.856 140.08H517.416C517.496 140.08 517.563 140.093 517.616 140.12C517.67 140.147 517.75 140.2 517.856 140.28C518.203 140.467 518.55 140.707 518.896 141C519.243 141.267 519.643 141.507 520.096 141.72C520.55 141.933 521.096 142.04 521.736 142.04C522.483 142.04 523.11 141.893 523.616 141.6C524.123 141.307 524.376 140.867 524.376 140.28C524.376 139.853 524.256 139.507 524.016 139.24C523.776 138.947 523.283 138.667 522.536 138.4C521.816 138.133 520.723 137.867 519.256 137.6C517.87 137.28 516.656 136.867 515.616 136.36C514.576 135.827 513.776 135.147 513.216 134.32C512.656 133.467 512.376 132.44 512.376 131.24C512.376 130.173 512.723 129.147 513.416 128.16C514.11 127.173 515.123 126.373 516.456 125.76C517.79 125.12 519.43 124.8 521.376 124.8C522.923 124.8 524.256 124.987 525.376 125.36C526.523 125.707 527.483 126.16 528.256 126.72C529.056 127.28 529.656 127.853 530.056 128.44C530.456 129.027 530.67 129.56 530.696 130.04C530.723 130.307 530.643 130.547 530.456 130.76C530.27 130.947 530.056 131.04 529.816 131.04H525.656C525.55 131.04 525.443 131.027 525.336 131C525.23 130.947 525.136 130.893 525.056 130.84C524.736 130.68 524.416 130.467 524.096 130.2C523.776 129.933 523.403 129.693 522.976 129.48C522.55 129.267 522.016 129.16 521.376 129.16C520.656 129.16 520.096 129.32 519.696 129.64C519.296 129.96 519.096 130.373 519.096 130.88C519.096 131.227 519.203 131.547 519.416 131.84C519.656 132.133 520.123 132.4 520.816 132.64C521.536 132.88 522.643 133.147 524.136 133.44C525.976 133.733 527.443 134.213 528.536 134.88C529.63 135.52 530.403 136.28 530.856 137.16C531.31 138.013 531.536 138.92 531.536 139.88C531.536 141.16 531.15 142.293 530.376 143.28C529.63 144.267 528.51 145.04 527.016 145.6C525.523 146.133 523.71 146.4 521.576 146.4ZM545.648 146C543.942 146 542.462 145.733 541.208 145.2C539.982 144.64 539.035 143.787 538.368 142.64C537.702 141.467 537.368 139.96 537.368 138.12V130.44H534.248C533.955 130.44 533.702 130.347 533.488 130.16C533.302 129.973 533.208 129.733 533.208 129.44V126.2C533.208 125.907 533.302 125.667 533.488 125.48C533.702 125.293 533.955 125.2 534.248 125.2H537.368V118.6C537.368 118.307 537.462 118.067 537.648 117.88C537.862 117.693 538.102 117.6 538.368 117.6H543.008C543.302 117.6 543.542 117.693 543.728 117.88C543.915 118.067 544.008 118.307 544.008 118.6V125.2H549.008C549.302 125.2 549.542 125.293 549.728 125.48C549.915 125.667 550.008 125.907 550.008 126.2V129.44C550.008 129.733 549.915 129.973 549.728 130.16C549.542 130.347 549.302 130.44 549.008 130.44H544.008V137.56C544.008 138.467 544.182 139.187 544.528 139.72C544.875 140.253 545.462 140.52 546.288 140.52H549.368C549.662 140.52 549.902 140.613 550.088 140.8C550.275 140.987 550.368 141.227 550.368 141.52V145C550.368 145.293 550.275 145.533 550.088 145.72C549.902 145.907 549.662 146 549.368 146H545.648ZM563.28 146.4C560.134 146.4 557.627 145.547 555.76 143.84C553.894 142.133 552.92 139.6 552.84 136.24C552.84 136.053 552.84 135.813 552.84 135.52C552.84 135.227 552.84 135 552.84 134.84C552.92 132.733 553.387 130.933 554.24 129.44C555.12 127.92 556.32 126.773 557.84 126C559.387 125.2 561.187 124.8 563.24 124.8C565.587 124.8 567.52 125.267 569.04 126.2C570.587 127.133 571.747 128.4 572.52 130C573.294 131.6 573.68 133.427 573.68 135.48V136.44C573.68 136.733 573.574 136.973 573.36 137.16C573.174 137.347 572.947 137.44 572.68 137.44H559.88C559.88 137.467 559.88 137.507 559.88 137.56C559.88 137.613 559.88 137.667 559.88 137.72C559.907 138.493 560.04 139.2 560.28 139.84C560.52 140.48 560.894 140.987 561.4 141.36C561.907 141.733 562.52 141.92 563.24 141.92C563.774 141.92 564.214 141.84 564.56 141.68C564.934 141.493 565.24 141.293 565.48 141.08C565.72 140.84 565.907 140.64 566.04 140.48C566.28 140.213 566.467 140.053 566.6 140C566.76 139.92 567 139.88 567.32 139.88H572.28C572.547 139.88 572.76 139.96 572.92 140.12C573.107 140.253 573.187 140.453 573.16 140.72C573.134 141.173 572.907 141.72 572.48 142.36C572.054 143 571.427 143.64 570.6 144.28C569.8 144.893 568.787 145.4 567.56 145.8C566.334 146.2 564.907 146.4 563.28 146.4ZM559.88 133.48H566.64V133.4C566.64 132.547 566.507 131.8 566.24 131.16C566 130.52 565.614 130.027 565.08 129.68C564.574 129.333 563.96 129.16 563.24 129.16C562.52 129.16 561.907 129.333 561.4 129.68C560.92 130.027 560.547 130.52 560.28 131.16C560.014 131.8 559.88 132.547 559.88 133.4V133.48ZM578.43 146C578.137 146 577.897 145.907 577.71 145.72C577.524 145.533 577.43 145.293 577.43 145V126.2C577.43 125.907 577.524 125.667 577.71 125.48C577.897 125.293 578.137 125.2 578.43 125.2H582.79C583.084 125.2 583.324 125.293 583.51 125.48C583.697 125.667 583.79 125.907 583.79 126.2V127.56C584.324 126.84 585.07 126.213 586.03 125.68C586.99 125.12 588.124 124.827 589.43 124.8C592.497 124.747 594.604 125.907 595.75 128.28C596.364 127.267 597.244 126.44 598.39 125.8C599.537 125.133 600.79 124.8 602.15 124.8C603.537 124.8 604.777 125.12 605.87 125.76C606.99 126.373 607.884 127.333 608.55 128.64C609.217 129.92 609.55 131.587 609.55 133.64V145C609.55 145.293 609.444 145.533 609.23 145.72C609.044 145.907 608.817 146 608.55 146H603.91C603.617 146 603.364 145.907 603.15 145.72C602.964 145.533 602.87 145.293 602.87 145V133.92C602.87 132.987 602.737 132.253 602.47 131.72C602.204 131.16 601.844 130.76 601.39 130.52C600.937 130.28 600.417 130.16 599.83 130.16C599.35 130.16 598.87 130.28 598.39 130.52C597.937 130.76 597.564 131.16 597.27 131.72C597.004 132.253 596.87 132.987 596.87 133.92V145C596.87 145.293 596.777 145.533 596.59 145.72C596.404 145.907 596.164 146 595.87 146H591.23C590.937 146 590.697 145.907 590.51 145.72C590.324 145.533 590.23 145.293 590.23 145V133.92C590.23 132.987 590.084 132.253 589.79 131.72C589.497 131.16 589.124 130.76 588.67 130.52C588.217 130.28 587.71 130.16 587.15 130.16C586.67 130.16 586.19 130.28 585.71 130.52C585.257 130.76 584.884 131.16 584.59 131.72C584.324 132.253 584.19 132.973 584.19 133.88V145C584.19 145.293 584.084 145.533 583.87 145.72C583.684 145.907 583.444 146 583.15 146H578.43Z" fill="#00FFC2"/>
<circle cx="964" cy="157" r="5" fill="white"/>
<circle cx="984" cy="157" r="5" fill="white"/>
<circle cx="1004" cy="157" r="5" fill="white"/>
<path d="M434.048 192.24C433.152 192.24 432.4 192.088 431.792 191.784C431.2 191.48 430.712 191.096 430.328 190.632V191.4C430.328 191.576 430.264 191.72 430.136 191.832C430.024 191.944 429.888 192 429.728 192H427.016C426.84 192 426.696 191.944 426.584 191.832C426.472 191.72 426.416 191.576 426.416 191.4V175.56C426.416 175.384 426.472 175.24 426.584 175.128C426.696 175.016 426.84 174.96 427.016 174.96H429.944C430.12 174.96 430.264 175.016 430.376 175.128C430.488 175.24 430.544 175.384 430.544 175.56V180.696C430.928 180.28 431.408 179.944 431.984 179.688C432.576 179.416 433.264 179.28 434.048 179.28C434.848 179.28 435.552 179.416 436.16 179.688C436.784 179.944 437.312 180.32 437.744 180.816C438.176 181.312 438.512 181.904 438.752 182.592C438.992 183.28 439.128 184.056 439.16 184.92C439.176 185.224 439.184 185.504 439.184 185.76C439.184 186 439.176 186.28 439.16 186.6C439.128 187.496 438.984 188.296 438.728 189C438.488 189.688 438.152 190.28 437.72 190.776C437.288 191.256 436.768 191.624 436.16 191.88C435.552 192.12 434.848 192.24 434.048 192.24ZM432.752 189.024C433.296 189.024 433.72 188.912 434.024 188.688C434.328 188.464 434.544 188.16 434.672 187.776C434.816 187.392 434.904 186.968 434.936 186.504C434.968 186.008 434.968 185.512 434.936 185.016C434.904 184.552 434.816 184.128 434.672 183.744C434.544 183.36 434.328 183.056 434.024 182.832C433.72 182.608 433.296 182.496 432.752 182.496C432.256 182.496 431.848 182.608 431.528 182.832C431.208 183.04 430.968 183.32 430.808 183.672C430.648 184.008 430.56 184.376 430.544 184.776C430.528 185.08 430.52 185.376 430.52 185.664C430.52 185.952 430.528 186.256 430.544 186.576C430.56 187.008 430.64 187.408 430.784 187.776C430.928 188.144 431.16 188.448 431.48 188.688C431.8 188.912 432.224 189.024 432.752 189.024ZM443.369 196.56C443.225 196.56 443.105 196.512 443.009 196.416C442.913 196.32 442.865 196.2 442.865 196.056C442.865 196.024 442.865 195.976 442.865 195.912C442.881 195.864 442.905 195.808 442.937 195.744L444.809 191.232L440.201 180.336C440.153 180.224 440.129 180.128 440.129 180.048C440.161 179.904 440.225 179.784 440.321 179.688C440.417 179.576 440.537 179.52 440.681 179.52H443.417C443.625 179.52 443.777 179.576 443.873 179.688C443.985 179.784 444.057 179.896 444.089 180.024L446.849 187.008L449.657 180.024C449.721 179.896 449.801 179.784 449.897 179.688C450.009 179.576 450.169 179.52 450.377 179.52H453.065C453.209 179.52 453.329 179.576 453.425 179.688C453.537 179.784 453.593 179.896 453.593 180.024C453.593 180.104 453.569 180.208 453.521 180.336L446.729 196.056C446.681 196.184 446.601 196.296 446.489 196.392C446.377 196.504 446.217 196.56 446.009 196.56H443.369ZM458.556 192C458.428 192 458.308 191.952 458.196 191.856C458.1 191.744 458.052 191.624 458.052 191.496C458.052 191.416 458.06 191.344 458.076 191.28L463.716 175.872C463.764 175.696 463.86 175.544 464.004 175.416C464.164 175.272 464.38 175.2 464.652 175.2H468.204C468.476 175.2 468.684 175.272 468.828 175.416C468.988 175.544 469.092 175.696 469.14 175.872L474.756 191.28C474.788 191.344 474.804 191.416 474.804 191.496C474.804 191.624 474.748 191.744 474.636 191.856C474.54 191.952 474.42 192 474.276 192H471.324C471.084 192 470.9 191.944 470.772 191.832C470.66 191.704 470.588 191.592 470.556 191.496L469.62 189.048H463.212L462.3 191.496C462.268 191.592 462.196 191.704 462.084 191.832C461.972 191.944 461.78 192 461.508 192H458.556ZM464.196 185.592H468.66L466.404 179.256L464.196 185.592ZM477.032 192C476.856 192 476.712 191.944 476.6 191.832C476.488 191.72 476.432 191.576 476.432 191.4V175.56C476.432 175.384 476.488 175.24 476.6 175.128C476.712 175.016 476.856 174.96 477.032 174.96H479.864C480.04 174.96 480.184 175.016 480.296 175.128C480.408 175.24 480.464 175.384 480.464 175.56V191.4C480.464 191.576 480.408 191.72 480.296 191.832C480.184 191.944 480.04 192 479.864 192H477.032ZM483.899 192C483.723 192 483.579 191.944 483.467 191.832C483.355 191.72 483.299 191.576 483.299 191.4V175.56C483.299 175.384 483.355 175.24 483.467 175.128C483.579 175.016 483.723 174.96 483.899 174.96H486.683C486.843 174.96 486.979 175.016 487.091 175.128C487.219 175.24 487.283 175.384 487.283 175.56V183.6L490.619 179.928C490.715 179.816 490.819 179.72 490.931 179.64C491.043 179.56 491.203 179.52 491.411 179.52H494.627C494.771 179.52 494.891 179.576 494.987 179.688C495.099 179.784 495.155 179.904 495.155 180.048C495.155 180.112 495.139 180.184 495.107 180.264C495.075 180.344 495.027 180.408 494.963 180.456L490.643 185.112L495.563 191.088C495.691 191.216 495.755 191.344 495.755 191.472C495.755 191.616 495.699 191.744 495.587 191.856C495.491 191.952 495.363 192 495.203 192H491.915C491.675 192 491.499 191.96 491.387 191.88C491.275 191.784 491.171 191.688 491.075 191.592L487.283 187.032V191.4C487.283 191.576 487.219 191.72 487.091 191.832C486.979 191.944 486.843 192 486.683 192H483.899ZM502.512 192.24C500.624 192.24 499.12 191.728 498 190.704C496.88 189.68 496.296 188.16 496.248 186.144C496.248 186.032 496.248 185.888 496.248 185.712C496.248 185.536 496.248 185.4 496.248 185.304C496.296 184.04 496.576 182.96 497.088 182.064C497.616 181.152 498.336 180.464 499.248 180C500.176 179.52 501.256 179.28 502.488 179.28C503.896 179.28 505.056 179.56 505.968 180.12C506.896 180.68 507.592 181.44 508.056 182.4C508.52 183.36 508.752 184.456 508.752 185.688V186.264C508.752 186.44 508.688 186.584 508.56 186.696C508.448 186.808 508.312 186.864 508.152 186.864H500.472C500.472 186.88 500.472 186.904 500.472 186.936C500.472 186.968 500.472 187 500.472 187.032C500.488 187.496 500.568 187.92 500.712 188.304C500.856 188.688 501.08 188.992 501.384 189.216C501.688 189.44 502.056 189.552 502.488 189.552C502.808 189.552 503.072 189.504 503.28 189.408C503.504 189.296 503.688 189.176 503.832 189.048C503.976 188.904 504.088 188.784 504.168 188.688C504.312 188.528 504.424 188.432 504.504 188.4C504.6 188.352 504.744 188.328 504.936 188.328H507.912C508.072 188.328 508.2 188.376 508.296 188.472C508.408 188.552 508.456 188.672 508.44 188.832C508.424 189.104 508.288 189.432 508.032 189.816C507.776 190.2 507.4 190.584 506.904 190.968C506.424 191.336 505.816 191.64 505.08 191.88C504.344 192.12 503.488 192.24 502.512 192.24ZM500.472 184.488H504.528V184.44C504.528 183.928 504.448 183.48 504.288 183.096C504.144 182.712 503.912 182.416 503.592 182.208C503.288 182 502.92 181.896 502.488 181.896C502.056 181.896 501.688 182 501.384 182.208C501.096 182.416 500.872 182.712 500.712 183.096C500.552 183.48 500.472 183.928 500.472 184.44V184.488ZM511.602 192C511.426 192 511.282 191.944 511.17 191.832C511.058 191.72 511.002 191.576 511.002 191.4V180.12C511.002 179.944 511.058 179.8 511.17 179.688C511.282 179.576 511.426 179.52 511.602 179.52H514.362C514.538 179.52 514.682 179.576 514.794 179.688C514.906 179.8 514.962 179.944 514.962 180.12V181.032C515.378 180.536 515.922 180.12 516.594 179.784C517.266 179.448 518.058 179.28 518.97 179.28C519.898 179.28 520.714 179.488 521.418 179.904C522.138 180.32 522.698 180.936 523.098 181.752C523.514 182.552 523.722 183.536 523.722 184.704V191.4C523.722 191.576 523.658 191.72 523.53 191.832C523.418 191.944 523.282 192 523.122 192H520.098C519.938 192 519.794 191.944 519.666 191.832C519.554 191.72 519.498 191.576 519.498 191.4V184.848C519.498 184.096 519.314 183.52 518.946 183.12C518.594 182.704 518.066 182.496 517.362 182.496C516.706 182.496 516.178 182.704 515.778 183.12C515.394 183.52 515.202 184.096 515.202 184.848V191.4C515.202 191.576 515.138 191.72 515.01 191.832C514.898 191.944 514.762 192 514.602 192H511.602ZM532.374 192C532.198 192 532.054 191.944 531.942 191.832C531.83 191.72 531.774 191.576 531.774 191.4V175.8C531.774 175.624 531.83 175.48 531.942 175.368C532.054 175.256 532.198 175.2 532.374 175.2H538.614C540.182 175.2 541.518 175.456 542.622 175.968C543.726 176.464 544.574 177.2 545.166 178.176C545.758 179.136 546.078 180.328 546.126 181.752C546.142 182.456 546.15 183.072 546.15 183.6C546.15 184.128 546.142 184.736 546.126 185.424C546.062 186.912 545.742 188.144 545.166 189.12C544.606 190.096 543.782 190.824 542.694 191.304C541.622 191.768 540.302 192 538.734 192H532.374ZM536.07 188.544H538.614C539.302 188.544 539.87 188.44 540.318 188.232C540.782 188.008 541.126 187.664 541.35 187.2C541.59 186.736 541.718 186.128 541.734 185.376C541.766 184.912 541.782 184.496 541.782 184.128C541.798 183.76 541.798 183.392 541.782 183.024C541.782 182.656 541.766 182.248 541.734 181.8C541.702 180.712 541.414 179.92 540.87 179.424C540.342 178.912 539.55 178.656 538.494 178.656H536.07V188.544ZM554.449 192.24C552.561 192.24 551.057 191.728 549.937 190.704C548.817 189.68 548.233 188.16 548.185 186.144C548.185 186.032 548.185 185.888 548.185 185.712C548.185 185.536 548.185 185.4 548.185 185.304C548.233 184.04 548.513 182.96 549.025 182.064C549.553 181.152 550.273 180.464 551.185 180C552.113 179.52 553.193 179.28 554.425 179.28C555.833 179.28 556.993 179.56 557.905 180.12C558.833 180.68 559.529 181.44 559.993 182.4C560.457 183.36 560.689 184.456 560.689 185.688V186.264C560.689 186.44 560.625 186.584 560.497 186.696C560.385 186.808 560.249 186.864 560.089 186.864H552.409C552.409 186.88 552.409 186.904 552.409 186.936C552.409 186.968 552.409 187 552.409 187.032C552.425 187.496 552.505 187.92 552.649 188.304C552.793 188.688 553.017 188.992 553.321 189.216C553.625 189.44 553.993 189.552 554.425 189.552C554.745 189.552 555.009 189.504 555.217 189.408C555.441 189.296 555.625 189.176 555.769 189.048C555.913 188.904 556.025 188.784 556.105 188.688C556.249 188.528 556.361 188.432 556.441 188.4C556.537 188.352 556.681 188.328 556.873 188.328H559.849C560.009 188.328 560.137 188.376 560.233 188.472C560.345 188.552 560.393 188.672 560.377 188.832C560.361 189.104 560.225 189.432 559.969 189.816C559.713 190.2 559.337 190.584 558.841 190.968C558.361 191.336 557.753 191.64 557.017 191.88C556.281 192.12 555.425 192.24 554.449 192.24ZM552.409 184.488H556.465V184.44C556.465 183.928 556.385 183.48 556.225 183.096C556.081 182.712 555.849 182.416 555.529 182.208C555.225 182 554.857 181.896 554.425 181.896C553.993 181.896 553.625 182 553.321 182.208C553.033 182.416 552.809 182.712 552.649 183.096C552.489 183.48 552.409 183.928 552.409 184.44V184.488ZM568.075 192.24C567.035 192.24 566.147 192.128 565.411 191.904C564.691 191.664 564.099 191.376 563.635 191.04C563.187 190.704 562.851 190.36 562.627 190.008C562.403 189.64 562.283 189.328 562.267 189.072C562.251 188.896 562.307 188.752 562.435 188.64C562.563 188.512 562.699 188.448 562.843 188.448H565.579C565.627 188.448 565.667 188.456 565.699 188.472C565.731 188.488 565.779 188.52 565.843 188.568C566.051 188.68 566.259 188.824 566.467 189C566.675 189.16 566.915 189.304 567.187 189.432C567.459 189.56 567.787 189.624 568.171 189.624C568.619 189.624 568.995 189.536 569.299 189.36C569.603 189.184 569.755 188.92 569.755 188.568C569.755 188.312 569.683 188.104 569.539 187.944C569.395 187.768 569.099 187.6 568.651 187.44C568.219 187.28 567.563 187.12 566.683 186.96C565.851 186.768 565.123 186.52 564.499 186.216C563.875 185.896 563.395 185.488 563.059 184.992C562.723 184.48 562.555 183.864 562.555 183.144C562.555 182.504 562.763 181.888 563.179 181.296C563.595 180.704 564.203 180.224 565.003 179.856C565.803 179.472 566.787 179.28 567.955 179.28C568.883 179.28 569.683 179.392 570.355 179.616C571.043 179.824 571.619 180.096 572.083 180.432C572.563 180.768 572.923 181.112 573.163 181.464C573.403 181.816 573.531 182.136 573.547 182.424C573.563 182.584 573.515 182.728 573.403 182.856C573.291 182.968 573.163 183.024 573.019 183.024H570.523C570.459 183.024 570.395 183.016 570.331 183C570.267 182.968 570.211 182.936 570.163 182.904C569.971 182.808 569.779 182.68 569.587 182.52C569.395 182.36 569.171 182.216 568.915 182.088C568.659 181.96 568.339 181.896 567.955 181.896C567.523 181.896 567.187 181.992 566.947 182.184C566.707 182.376 566.587 182.624 566.587 182.928C566.587 183.136 566.651 183.328 566.779 183.504C566.923 183.68 567.203 183.84 567.619 183.984C568.051 184.128 568.715 184.288 569.611 184.464C570.715 184.64 571.595 184.928 572.251 185.328C572.907 185.712 573.371 186.168 573.643 186.696C573.915 187.208 574.051 187.752 574.051 188.328C574.051 189.096 573.819 189.776 573.355 190.368C572.907 190.96 572.235 191.424 571.339 191.76C570.443 192.08 569.355 192.24 568.075 192.24ZM582.519 192C581.495 192 580.607 191.84 579.855 191.52C579.119 191.184 578.551 190.672 578.151 189.984C577.751 189.28 577.551 188.376 577.551 187.272V182.664H575.679C575.503 182.664 575.351 182.608 575.223 182.496C575.111 182.384 575.055 182.24 575.055 182.064V180.12C575.055 179.944 575.111 179.8 575.223 179.688C575.351 179.576 575.503 179.52 575.679 179.52H577.551V175.56C577.551 175.384 577.607 175.24 577.719 175.128C577.847 175.016 577.991 174.96 578.151 174.96H580.935C581.111 174.96 581.255 175.016 581.367 175.128C581.479 175.24 581.535 175.384 581.535 175.56V179.52H584.535C584.711 179.52 584.855 179.576 584.967 179.688C585.079 179.8 585.135 179.944 585.135 180.12V182.064C585.135 182.24 585.079 182.384 584.967 182.496C584.855 182.608 584.711 182.664 584.535 182.664H581.535V186.936C581.535 187.48 581.639 187.912 581.847 188.232C582.055 188.552 582.407 188.712 582.903 188.712H584.751C584.927 188.712 585.071 188.768 585.183 188.88C585.295 188.992 585.351 189.136 585.351 189.312V191.4C585.351 191.576 585.295 191.72 585.183 191.832C585.071 191.944 584.927 192 584.751 192H582.519ZM593.098 192.24C591.21 192.24 589.706 191.728 588.586 190.704C587.466 189.68 586.882 188.16 586.834 186.144C586.834 186.032 586.834 185.888 586.834 185.712C586.834 185.536 586.834 185.4 586.834 185.304C586.882 184.04 587.162 182.96 587.674 182.064C588.202 181.152 588.922 180.464 589.834 180C590.762 179.52 591.842 179.28 593.074 179.28C594.482 179.28 595.642 179.56 596.554 180.12C597.482 180.68 598.178 181.44 598.642 182.4C599.106 183.36 599.338 184.456 599.338 185.688V186.264C599.338 186.44 599.274 186.584 599.146 186.696C599.034 186.808 598.898 186.864 598.738 186.864H591.058C591.058 186.88 591.058 186.904 591.058 186.936C591.058 186.968 591.058 187 591.058 187.032C591.074 187.496 591.154 187.92 591.298 188.304C591.442 188.688 591.666 188.992 591.97 189.216C592.274 189.44 592.642 189.552 593.074 189.552C593.394 189.552 593.658 189.504 593.866 189.408C594.09 189.296 594.274 189.176 594.418 189.048C594.562 188.904 594.674 188.784 594.754 188.688C594.898 188.528 595.01 188.432 595.09 188.4C595.186 188.352 595.33 188.328 595.522 188.328H598.498C598.658 188.328 598.786 188.376 598.882 188.472C598.994 188.552 599.042 188.672 599.026 188.832C599.01 189.104 598.874 189.432 598.618 189.816C598.362 190.2 597.986 190.584 597.49 190.968C597.01 191.336 596.402 191.64 595.666 191.88C594.93 192.12 594.074 192.24 593.098 192.24ZM591.058 184.488H595.114V184.44C595.114 183.928 595.034 183.48 594.874 183.096C594.73 182.712 594.498 182.416 594.178 182.208C593.874 182 593.506 181.896 593.074 181.896C592.642 181.896 592.274 182 591.97 182.208C591.682 182.416 591.458 182.712 591.298 183.096C591.138 183.48 591.058 183.928 591.058 184.44V184.488ZM602.188 192C602.012 192 601.868 191.944 601.756 191.832C601.644 191.72 601.588 191.576 601.588 191.4V180.12C601.588 179.96 601.644 179.824 601.756 179.712C601.868 179.584 602.012 179.52 602.188 179.52H604.948C605.124 179.52 605.268 179.584 605.38 179.712C605.492 179.824 605.548 179.96 605.548 180.12V181.08C605.98 180.584 606.492 180.2 607.084 179.928C607.692 179.656 608.372 179.52 609.124 179.52H610.18C610.34 179.52 610.476 179.576 610.588 179.688C610.716 179.8 610.78 179.944 610.78 180.12V182.592C610.78 182.752 610.716 182.896 610.588 183.024C610.476 183.136 610.34 183.192 610.18 183.192H607.852C607.196 183.192 606.684 183.376 606.316 183.744C605.964 184.096 605.788 184.6 605.788 185.256V191.4C605.788 191.576 605.724 191.72 605.596 191.832C605.484 191.944 605.34 192 605.164 192H602.188Z" fill="#76C2AC"/>
<path fill-rule="evenodd" clip-rule="evenodd" d="M385 650C495.457 650 585 560.457 585 450C585 339.543 495.457 250 385 250C274.543 250 185 339.543 185 450C185 560.457 274.543 650 385 650ZM385 645C492.696 645 580 557.696 580 450C580 342.304 492.696 255 385 255C277.304 255 190 342.304 190 450C190 557.696 277.304 645 385 645Z" fill="#B8FFE3"/>
<circle cx="400" cy="253" r="15" fill="#8AFFD1"/>
<circle cx="400" cy="253" r="10" fill="white"/>
<circle cx="276" cy="285" r="15" fill="#8AFFD1"/>
<circle cx="276" cy="285" r="10" fill="white"/>
<path fill-rule="evenodd" clip-rule="evenodd" d="M385 600C467.843 600 535 532.843 535 450C535 367.157 467.843 300 385 300C302.157 300 235 367.157 235 450C235 532.843 302.157 600 385 600ZM385 595C465.081 595 530 530.081 530 450C530 369.919 465.081 305 385 305C304.919 305 240 369.919 240 450C240 530.081 304.919 595 385 595Z" fill="#BBFFDE"/>
<circle cx="509" cy="371" r="15" fill="#8AFFD1"/>
<circle cx="509" cy="371" r="10" fill="white"/>
</g>
<defs>
<filter id="filter0_d_2_3" x="11" y="33.8168" width="75.7769" height="59.0418" filterUnits="userSpaceOnUse" color-interpolation-filters="sRGB">
<feFlood flood-opacity="0" result="BackgroundImageFix"/>
<feColorMatrix in="SourceAlpha" type="matrix" values="0 0 0 0 0 0 0 0 0 0 0 0 0 0 0 0 0 0 127 0" result="hardAlpha"/>
<feOffset dy="5"/>
<feGaussianBlur stdDeviation="10"/>
<feComposite in2="hardAlpha" operator="out"/>
<feColorMatrix type="matrix" values="0 0 0 0 0 0 0 0 0 0 0 0 0 0 0 0 0 0 0.04 0"/>
<feBlend mode="normal" in2="BackgroundImageFix" result="effect1_dropShadow_2_3"/>
<feBlend mode="normal" in="SourceGraphic" in2="effect1_dropShadow_2_3" result="shape"/>
</filter>
<filter id="filter1_d_2_3" x="670" y="96" width="400" height="300" filterUnits="userSpaceOnUse" color-interpolation-filters="sRGB">
<feFlood flood-opacity="0" result="BackgroundImageFix"/>
<feColorMatrix in="SourceAlpha" type="matrix" values="0 0 0 0 0 0 0 0 0 0 0 0 0 0 0 0 0 0 127 0" result="hardAlpha"/>
<feOffset/>
<feGaussianBlur stdDeviation="25"/>
<feComposite in2="hardAlpha" operator="out"/>
<feColorMatrix type="matrix" values="0 0 0 0 0.541667 0 0 0 0 1 0 0 0 0 0.818576 0 0 0 1 0"/>
<feBlend mode="normal" in2="BackgroundImageFix" result="effect1_dropShadow_2_3"/>
<feBlend mode="normal" in="SourceGraphic" in2="effect1_dropShadow_2_3" result="shape"/>
</filter>
<linearGradient id="paint0_linear_2_3" x1="81.3145" y1="18.2747" x2="38.0402" y2="68.5933" gradientUnits="userSpaceOnUse">
<stop stop-color="#00FFE0" stop-opacity="0.66"/>
<stop offset="1" stop-color="#00FFB3"/>
</linearGradient>
<linearGradient id="paint1_linear_2_3" x1="44.0952" y1="74.9019" x2="56.4168" y2="80.8697" gradientUnits="userSpaceOnUse">
<stop stop-color="white"/>
<stop offset="1" stop-color="#8BFFDC"/>
</linearGradient>
<linearGradient id="paint2_linear_2_3" x1="32.2384" y1="48.8168" x2="67.5614" y2="62.7451" gradientUnits="userSpaceOnUse">
<stop stop-color="white" stop-opacity="0.29"/>
<stop offset="1" stop-color="white" stop-opacity="0.4"/>
</linearGradient>
<linearGradient id="paint3_linear_2_3" x1="32.2384" y1="48.8168" x2="67.5614" y2="62.7451" gradientUnits="userSpaceOnUse">
<stop stop-color="white"/>
<stop offset="1" stop-color="white" stop-opacity="0"/>
</linearGradient>
<clipPath id="clip0_2_3">
<path d="M0 20C0 8.95431 8.95431 0 20 0H1180C1191.05 0 1200 8.95431 1200 20V390C1200 395.523 1195.52 400 1190 400H9.99999C4.47714 400 0 395.523 0 390V20Z" fill="white"/>
</clipPath>
</defs>
</svg>
